<?xml version="1.0" encoding="utf-8"?>
<!-- Generator: Adobe Illustrator 24.1.2, SVG Export Plug-In . SVG Version: 6.00 Build 0)  -->
<svg version="1.1" id="Layer_1" xmlns="http://www.w3.org/2000/svg" xmlns:xlink="http://www.w3.org/1999/xlink" x="0px" y="0px"
	 width="194.5px" height="194.2px" viewBox="0 0 194.5 194.2" style="enable-background:new 0 0 194.5 194.2;" xml:space="preserve"
	>
<style type="text/css">
	.st0{fill:#00766F;}
</style>
<g>
	<path class="st0" d="M155.4,50.9c7.4-2.4,14.2-2.5,20.5-0.5c0.2,0.1,0.4,0.1,0.6,0.2c4.2-10.8,7.3-22,9.2-33.4
		c-9,0.9-17.9,2.6-26.5,4.9c1,2.5,1.7,5.1,2,7.7C162,36.9,160.2,43.7,155.4,50.9z"/>
	<path class="st0" d="M56.7,93.6c-10.7-1.3-19.1-4.3-25-11c-0.6-0.7-1.1-1.3-1.6-2c-0.8-1.1-1.6-2.4-2.3-3.7C18.1,80,8.8,84,0,89
		c9.7,9.2,20.3,17.2,31.8,23.5c0.2-0.6,0.4-1.1,0.7-1.7C37.1,101.4,46.2,96.6,56.7,93.6z"/>
	<path class="st0" d="M65.6,21.4c10.3,1.9,17.7,9.2,24.5,20c-1.6-8.5-1.9-15.9,0-22.3C82.5,12,74.1,5.5,65.2,0
		c-2.5,6.8-4.4,13.9-5.9,21C61.5,20.9,63.6,21.1,65.6,21.4z"/>
	<path class="st0" d="M151.5,116.8c2.5,2.3,4.7,4.5,6.6,6.7c6,6.8,9.3,13.7,9.2,21.9c0,2.9-0.5,5.8-1.5,8.7c8.1,0,16.3-0.6,24.4-1.9
		c-4.2-12.6-9.7-24.4-16.5-35.1C166.9,118.8,159.5,118.7,151.5,116.8z"/>
	<path class="st0" d="M103.1,169.9l-0.2-0.2c-4.6-5.3-6.6-14.2-6-27.9c-5.5,12.3-11.1,19.1-17.5,21.3c-0.7,0.2-1.3,0.4-2,0.5
		c2.3,10.4,5.6,20.6,9.9,30.5c7.8-5.8,15.2-12.2,21.9-19.2C106.8,173.5,104.8,171.8,103.1,169.9z"/>
	<path class="st0" d="M36.5,75.9C44,86.4,60.6,86.6,83.6,86.9l0.5,0c6.4,0.1,12.7-0.3,19-1c-1.7-4.5-3.7-8.9-5.7-13.2l0,0
		c-6.9-14.4-12.8-26.9-19.8-34.8c-4.3-4.9-8.8-7.8-13.6-8.7c-2.4-0.4-4.9-0.4-7.5,0c-6.5,1.2-13.4,5.4-17.9,11.1
		c-7.1,9-8.9,22.5-4.1,32.3C35.3,74,35.9,75.1,36.5,75.9z"/>
	<path class="st0" d="M103.5,95.9c0.1-0.6,0.2-1.3,0.3-1.9c-4.7,0.3-9.4,0.8-14.1,1.5c-24.6,3.5-43.9,6.3-50,18.8
		c-0.5,1-0.9,2-1.2,3.2c-2.6,9.1,1.1,19.1,5.1,24.9c7,10.1,19.8,15.9,30.5,13.7l0.6-0.1c0.7-0.1,1.4-0.3,2-0.5
		c10.9-3.7,19.7-34.7,25.5-55.2L103.5,95.9z"/>
	<path class="st0" d="M149.6,62.2c-2.8,1.4-7,3.9-14.9,10.4c-6.6,5.4-13,11.3-19,17.6c5.7,4.3,11.7,8,18,11
		c7.1,3.4,22,10.6,37.8,8.1l0.5-0.1c0.3,0,0.6-0.1,1-0.2c1.8-0.5,17.6-5.4,20.8-18.4l0,0c1.9-7.5-0.8-16.3-7.1-23.6
		c-3.2-3.7-7.3-6.7-11.6-8.4c-0.1-0.1-0.3-0.1-0.5-0.2c-0.4-0.2-0.8-0.3-1.2-0.5C164.4,54.7,153.3,60.4,149.6,62.2z"/>
	<path class="st0" d="M159.4,145.3c0.2-12.8-13.2-23.3-31.8-37.7l-0.2-0.1c-2.1-1.6-6.4-4.6-12.1-8.6c-1.3-0.8-2.6-1.6-3.9-2.4
		c-0.1,0.4-0.2,0.8-0.3,1.2c-3.4,17-11.3,56.5-2.4,66.8c0,0,0.1,0.1,0.1,0.1c1.8,2,4.1,3.6,6.8,4.9c6,2.9,13.7,3.6,20.5,2
		c8.9-2.1,16.8-8.5,20.7-16.7C158.6,151.6,159.4,148.4,159.4,145.3z"/>
	<path class="st0" d="M97.5,22.6c-2.4,10.1,1.9,24.8,6.8,41.8c1.8,6.3,4,12.4,6.5,18.4c0,0,0.1-0.1,0.1-0.1c4.5-3.4,7.8-6,10.8-8.6
		c4.8-4.2,9.9-8.7,14.3-13l0,0c9.7-9.3,18.5-19.4,17.3-30.2c-0.3-2.5-1.1-5.1-2.4-7.6c-1.1-2.1-2.3-4-3.8-5.7
		c-3.2-3.7-7.5-6.8-11.9-8.8c-12.2-5.4-27.4-2.5-34.5,6.7C99.2,17.3,98.1,19.6,97.5,22.6z"/>
</g>
</svg>
