<?xml version="1.0" encoding="utf-8"?>
<!-- Generator: Adobe Illustrator 24.1.2, SVG Export Plug-In . SVG Version: 6.00 Build 0)  -->
<svg version="1.1" id="Layer_1" xmlns="http://www.w3.org/2000/svg" xmlns:xlink="http://www.w3.org/1999/xlink" x="0px" y="0px"
	 viewBox="0 0 612 792" style="enable-background:new 0 0 612 792;" xml:space="preserve">
<style type="text/css">
	.st0{fill:#00766F;}
</style>
<path class="st0" d="M386.1,359.7c7.6-0.5,15.2-0.7,22.8-0.7c7.5,0,14.6-0.4,21.4-3.3c5.9-2.5,16.1-3.8,15.6-6.4
	c-0.3-1.6-4.2-5.6-8.5-7.3c-6.2-2.4-11.5-3.3-18.1-3c-5.7,0.2-11.6,0.7-17.1,2.4c-6.1,1.9-19,9.1-26.6,14.3c2.5-3.9,5-7.9,7.3-11.9
	c6-10.3,13-19.9,23.7-25.8c8.8-4.8,12.8-9.1,18.4-18.2c6-9.9,8.2-24.6,7.3-25.7c-1-1.1-11.3,1.6-21.9,9.4
	c-7.7,5.7-14.3,15.2-17.2,27.5c-2.7,11.4-9.5,20-15.7,29.5c-0.7,1.1-1.5,2.3-2.2,3.4c0.7-1.8,1.4-3.6,2-5.3c2.4-7,6.9-25.8,4.3-42.1
	c-2.2-13.7-9.5-30.1-10.6-29.3c-2,1.4,1.1,12.7-1.3,24c-2.5,11.5-4.9,28.9-4.1,38.2c0.7,7.9,1.9,20.8,3.1,24.5
	c-0.7,1-1.4,2.1-2.1,3.1c-5.2,7.5-10.7,14.8-16.6,21.9c2.7-5.7,5.7-13,7.4-20.3c5.4-23.4-1.6-44.4-5.7-51.9
	c-4.1-7.5-13.1-16.2-14.9-15.8c-1.8,0.4,2.7,10.5,4,17.4c1.4,7.4,0.5,25.3,1,32.6c0.8,10.3,3.3,28.6,3.6,35.6
	c0.1,3.1-0.2,6.1-0.6,8.6c-3.1,3.6-6.2,7.1-9.5,10.5c-2.5,2.6-5.1,5.3-7.7,7.8c0-1.7,0.2-3.8,0.9-5.8c1.7-5.8,4.8-13.5,6.1-20.8
	c1.3-7.4,2.9-16.4-0.5-30.5c-2.4-10.2-7.3-20-16.9-26.7c-10.9-7.6-20.5-10.7-20.7-8.9c-0.2,1.8,11.8,13,19.2,33.2
	c7.4,20.3,8.5,37.7,7.8,43.6c-1,8.5-1.2,15.9-1.1,21c-7.5,6.9-15.6,13.4-24.2,18.9c0.7-1,1.4-2,2-3.2c3.7-7.4,7.4-14.8,9.7-22.8
	c5.4-18.6,5.6-34.1-5-50.1c-5.4-8.2-17.4-16.8-20.3-15.1c-1.9,1.1,8.7,26.2,9.5,28.7c4.4,14,4.8,28.8,3.4,43.3
	c-0.8,8.3-4,18.1-5.7,23c-0.1,0.1-0.2,0.1-0.3,0.2c-7.6,4.2-15.1,7.4-22.3,9.8c0.9-3.3,3.2-11.5,7.3-21c11.9-27,14.8-41.8,0.2-65.7
	c-3.4-5.5-9.6-12-16.9-15.4c-7.4-3.4-16.2-6.3-16.4-4c-0.2,2.5,9.2,18.3,17.5,31c9.5,14.5,10.1,39.9,8.2,48.9
	c-1.8,8.5-3.7,19.9-6.3,28.1c-10.8,2.9-21.1,4.1-30.9,4.2c1.4-1.7,2.7-3.3,3.6-4.2c14.4-13.3,24.5-37.9,19.7-57.6
	c-3.6-14.7-12.9-19.4-21.4-27.5c-8-7.6-17.3-8.3-17.4-6.7c-0.4,4.6,13.7,14.9,18.3,42.3c1.3,8.1,4.7,17.9,3,29.2
	c-1.1,7.8-7.4,17.8-13.5,24.2c-13.6-0.6-26.2-2.9-38.1-5c-5.6-1-10-1.8-13-2c-3.2-0.3-6,3-6.3,6.2c-0.3,3.2,2,6.6,5.2,6.9
	c2.5,0.2,6.7,0.9,12,1.9c7.1,1.3,14.5,2.5,22.2,3.3c2.7,1.6,14.3,8.3,23.2,13.4c10.7,6.1,17.3,5.8,34.5,23.3
	c15.1,15.4,20,28.8,22.3,29.7c2.3,0.9,5.2-4.3,3.6-20.5c-1.2-12.5-8.8-22.1-17.9-30c-10.9-9.5-24.7-9.8-35.6-11.1
	c-4.9-0.6-11.2-2.5-15-3.7c12.5,0.3,25.7-0.9,39.9-4.8c4.2,3.2,13.8,10.8,23.1,20.2c12.4,12.6,21.3,19.4,38.2,22.5
	c16.8,3,29,4.6,34.8,5.1c5.8,0.5,11.3,6,12,3.7c0.7-2.3-18.4-22.9-38.1-29.9c-19.7-7-33.4-9.2-45.9-14.3c-5.9-2.4-12.9-6.7-18.3-8.9
	c4.5-1.5,9.1-3.2,13.8-5.3c7.9,5.8,24,10.8,34.2,11.7c11.1,0.9,24.2,4.7,33.7,11.9c7,5.3,18.4,13.3,19,10.6
	c0.3-1.3,0.1-4.5-2.2-10.4c-2.7-6.8-8.2-15.2-14.2-18.6c-13.2-7.5-27.2-6.6-41.2-5.7c-9.4,0.6-20.5-0.2-26.6-0.8
	c3.4-1.6,6.8-3.3,10.3-5.2c2.4-1.3,4.6-2.7,6.9-4.1c5.2,2.4,20.1,4.1,26.8,2.6c7.4-1.7,23.1,0.7,36.1,6.6c13,5.9,27.6,16.9,30,17.2
	c2.3,0.3-0.3-6-2.5-12.3c-2.2-6.3-6.1-12.5-9.9-16.2c-16.1-15.8-36.7-14-56.1-5.6c-7.3,3.2-15.4,4.2-19.5,4.5
	c6.8-4.8,13.2-10.1,19.3-15.7c2.1-2,4.3-4,6.3-6.1c0.9,0.2,1.8,0.5,2.9,0.8c5.3,1.4,9.6,1.9,19,2c8.2,0.1,19.4,0.7,31.5,3.5
	c17.6,4.2,32.1,15.6,34.7,14.5c2.6-1.1-1-13.2-9.5-22.1c-7.7-8.2-25-12.1-38.5-8.8c-9,2.2-26,4.9-36.5,6.4c4.1-4.2,8-8.6,11.8-13
	c8.5,1,20.3-0.6,28-3.4c9.4-3.5,22.9-4.3,33.4-2c7.7,1.7,23.2,4.6,24.8,2.6c0.7-0.9-4.7-7.2-8.9-11.1c-4.8-4.5-13.8-8.9-19.9-9.4
	c-13.7-1.1-25.2,3.6-36.2,9.7c-5.3,2.9-11.6,5.9-16.7,8.3c5.3-6.6,10.4-13.3,15.2-20.2C371.2,365.5,378.7,360.2,386.1,359.7z"/>
</svg>
