<?xml version="1.0" encoding="utf-8"?>
<!-- Generator: Adobe Illustrator 24.1.2, SVG Export Plug-In . SVG Version: 6.00 Build 0)  -->
<svg version="1.1" id="Layer_1" xmlns="http://www.w3.org/2000/svg" xmlns:xlink="http://www.w3.org/1999/xlink" x="0px" y="0px"
	 viewBox="0 0 612 792" style="enable-background:new 0 0 612 792;" xml:space="preserve">
<style type="text/css">
	.st0{fill:#FBE19B;}
</style>
<g>
	<g>
		<path class="st0" d="M150,468.6c0-0.8,0-1.5,0-2.1c0-0.6,0-1.3-0.1-1.9c0.2,0,0.3,0,0.5,0.1c0.2,0,0.4,0,0.7,0c0.4,0,0.9,0,1.3,0
			c0.5,0,0.9,0,1.3,0c0.4,0,0.8,0,1.2,0.1c0.4,0.1,0.7,0.2,0.9,0.4c0.3,0.2,0.5,0.4,0.6,0.7c0.1,0.3,0.2,0.6,0.2,1
			c0,0.4-0.1,0.7-0.2,1c-0.2,0.3-0.4,0.5-0.6,0.7c-0.2,0.2-0.5,0.3-0.8,0.4c-0.3,0.1-0.5,0.2-0.7,0.2v0c0.2,0,0.5,0.1,0.8,0.2
			c0.3,0.1,0.6,0.2,0.9,0.4s0.5,0.4,0.7,0.7c0.2,0.3,0.3,0.7,0.3,1.1c0,0.5-0.1,1-0.3,1.3c-0.2,0.4-0.4,0.7-0.8,0.9
			c-0.3,0.2-0.7,0.4-1.1,0.5c-0.4,0.1-0.8,0.1-1.3,0.1c-0.4,0-0.7,0-1.1,0c-0.3,0-0.7,0-1.1,0c-0.3,0-0.5,0-0.8,0
			c-0.3,0-0.5,0-0.7,0c0-0.6,0.1-1.2,0.1-1.8c0-0.6,0-1.3,0-2.1V468.6z M154.4,467.1c0-0.2,0-0.5-0.1-0.7c-0.1-0.2-0.1-0.4-0.3-0.5
			c-0.1-0.1-0.3-0.3-0.5-0.4c-0.2-0.1-0.4-0.1-0.7-0.1c-0.2,0-0.4,0-0.4,0c-0.1,0-0.2,0-0.3,0c0,0.4,0,0.7,0,1.1c0,0.4,0,0.7,0,0.9
			c0,0.3,0,0.5,0,0.7c0,0.2,0,0.5,0,0.7h0.7c0.2,0,0.4,0,0.6-0.1c0.2-0.1,0.4-0.2,0.5-0.3c0.2-0.2,0.3-0.3,0.4-0.6
			C154.4,467.7,154.4,467.4,154.4,467.1z M154.5,471.8c0-0.7-0.2-1.2-0.5-1.5c-0.3-0.3-0.7-0.5-1.3-0.5c-0.1,0-0.3,0-0.3,0
			c-0.1,0-0.2,0-0.3,0c0,0.2,0,0.4,0,0.6c0,0.2,0,0.5,0,0.8c0,0.2,0,0.5,0,0.7c0,0.2,0,0.5,0,0.7s0,0.4,0,0.6c0,0.2,0,0.4,0,0.5
			c0.1,0,0.3,0,0.4,0c0.1,0,0.3,0,0.4,0c0.2,0,0.4,0,0.6-0.1c0.2-0.1,0.4-0.2,0.5-0.4c0.1-0.2,0.3-0.4,0.3-0.6
			C154.5,472.4,154.5,472.1,154.5,471.8z"/>
		<path class="st0" d="M170.3,466.5c0-0.6,0-1.3-0.1-1.9c0.2,0,0.3,0,0.5,0.1c0.2,0,0.4,0,0.7,0c0.2,0,0.5,0,0.7,0
			c0.2,0,0.4,0,0.5-0.1c0,0.6-0.1,1.3-0.1,1.9c0,0.6,0,1.3,0,2.1v2c0,0.8,0,1.5,0,2.1c0,0.6,0,1.2,0.1,1.8c-0.2,0-0.3,0-0.5,0
			s-0.4,0-0.7,0c-0.2,0-0.5,0-0.7,0s-0.4,0-0.5,0c0-0.6,0.1-1.2,0.1-1.8c0-0.6,0-1.3,0-2.1v-2C170.4,467.8,170.4,467.1,170.3,466.5z
			"/>
		<path class="st0" d="M185.8,469.6c0-0.7,0.1-1.4,0.4-2c0.3-0.6,0.6-1.2,1.1-1.7s1.1-0.8,1.8-1.1c0.7-0.3,1.5-0.4,2.3-0.4
			c0.8,0,1.5,0.1,2.2,0.3c0.7,0.2,1.2,0.5,1.7,1c0.5,0.4,0.9,1,1.2,1.6c0.3,0.7,0.4,1.4,0.4,2.3c0,0.7-0.1,1.4-0.4,2
			c-0.3,0.6-0.7,1.2-1.1,1.6c-0.5,0.5-1.1,0.8-1.7,1.1c-0.7,0.3-1.4,0.4-2.2,0.4c-0.8,0-1.5-0.1-2.2-0.3c-0.7-0.2-1.3-0.5-1.8-0.9
			c-0.5-0.4-0.9-1-1.2-1.6C186,471.3,185.8,470.5,185.8,469.6z M194.5,469.3c0-0.6-0.1-1.2-0.2-1.7c-0.2-0.5-0.4-0.9-0.6-1.3
			c-0.3-0.3-0.6-0.6-1-0.8c-0.4-0.2-0.8-0.3-1.3-0.3c-0.5,0-0.9,0.1-1.3,0.4c-0.4,0.2-0.7,0.6-1,1c-0.3,0.4-0.5,0.9-0.6,1.4
			c-0.1,0.5-0.2,1.1-0.2,1.7c0,0.8,0.1,1.4,0.2,2c0.2,0.5,0.4,1,0.7,1.3c0.3,0.3,0.6,0.6,1,0.7c0.4,0.1,0.8,0.2,1.2,0.2
			c0.4,0,0.9-0.1,1.2-0.3c0.4-0.2,0.7-0.5,1-0.8c0.3-0.4,0.5-0.9,0.7-1.4C194.4,470.7,194.5,470.1,194.5,469.3z"/>
		<path class="st0" d="M212.7,465.3c-0.4,0-0.8,0.1-1.1,0.4s-0.4,0.6-0.4,0.9c0,0.4,0.1,0.7,0.3,0.9c0.2,0.2,0.5,0.4,0.8,0.6
			c0.3,0.2,0.7,0.4,1.1,0.5c0.4,0.2,0.7,0.4,1.1,0.6c0.3,0.2,0.6,0.5,0.8,0.9c0.2,0.4,0.3,0.8,0.3,1.4c0,0.5-0.1,0.9-0.3,1.3
			c-0.2,0.4-0.4,0.7-0.8,1c-0.3,0.3-0.7,0.5-1.2,0.7c-0.5,0.2-1,0.2-1.6,0.2c-0.5,0-1-0.1-1.4-0.2c-0.4-0.1-0.7-0.2-0.9-0.4
			c0.1-0.3,0.2-0.6,0.2-0.9c0.1-0.3,0.1-0.6,0.2-0.9h0.3c0,0.2,0.1,0.4,0.2,0.6c0.1,0.2,0.2,0.4,0.4,0.5c0.2,0.1,0.4,0.3,0.6,0.3
			c0.2,0.1,0.5,0.1,0.8,0.1c0.6,0,1-0.1,1.3-0.4c0.3-0.3,0.4-0.6,0.4-1c0-0.4-0.1-0.7-0.3-0.9c-0.2-0.2-0.5-0.4-0.8-0.6
			c-0.3-0.2-0.7-0.4-1-0.5c-0.4-0.2-0.7-0.4-1-0.6c-0.3-0.2-0.6-0.5-0.8-0.9s-0.3-0.8-0.3-1.4c0-0.5,0.1-0.9,0.3-1.3
			c0.2-0.4,0.4-0.7,0.7-1c0.3-0.3,0.6-0.5,1-0.6c0.4-0.1,0.8-0.2,1.2-0.2c0.5,0,1,0.1,1.4,0.2c0.4,0.1,0.7,0.3,1,0.5
			c-0.1,0.2-0.2,0.4-0.2,0.6c-0.1,0.2-0.1,0.5-0.2,0.8h-0.2C214.2,465.7,213.6,465.3,212.7,465.3z"/>
		<path class="st0" d="M236.6,473.5c-0.1,0.2-0.1,0.4-0.1,0.6c-0.8,0.4-1.8,0.6-3,0.6c-0.8,0-1.6-0.1-2.3-0.4
			c-0.7-0.2-1.2-0.6-1.7-1c-0.5-0.4-0.8-0.9-1.1-1.5c-0.2-0.6-0.4-1.2-0.4-1.9c0-1,0.2-1.9,0.5-2.6c0.3-0.7,0.7-1.3,1.3-1.7
			c0.5-0.4,1.1-0.8,1.8-1c0.7-0.2,1.4-0.3,2.2-0.3c0.3,0,0.5,0,0.8,0.1c0.3,0,0.6,0.1,0.8,0.2c0.3,0.1,0.5,0.1,0.7,0.2
			c0.2,0.1,0.4,0.2,0.6,0.3c-0.1,0.2-0.2,0.5-0.2,0.7c-0.1,0.2-0.1,0.5-0.1,0.7h-0.2c-0.4-0.5-0.7-0.8-1.1-1
			c-0.4-0.2-0.8-0.3-1.4-0.3c-0.4,0-0.8,0.1-1.2,0.3c-0.4,0.2-0.7,0.4-1.1,0.8c-0.3,0.4-0.6,0.8-0.8,1.4c-0.2,0.6-0.3,1.2-0.3,2
			c0,0.7,0.1,1.4,0.3,1.9c0.2,0.5,0.5,1,0.8,1.3c0.3,0.3,0.7,0.6,1.1,0.7c0.4,0.2,0.8,0.2,1.2,0.2c0.2,0,0.5,0,0.7-0.1
			c0.2-0.1,0.5-0.1,0.7-0.2c0.2-0.1,0.5-0.2,0.7-0.3c0.2-0.1,0.4-0.3,0.5-0.4l0.2,0.1C236.7,473.1,236.6,473.3,236.6,473.5z"/>
		<path class="st0" d="M250.1,466.5c0-0.6,0-1.3-0.1-1.9c0.2,0,0.3,0,0.5,0.1c0.2,0,0.4,0,0.7,0c0.2,0,0.5,0,0.7,0
			c0.2,0,0.4,0,0.5-0.1c0,0.6-0.1,1.3-0.1,1.9c0,0.6,0,1.3,0,2.1v2c0,0.8,0,1.5,0,2.1c0,0.6,0,1.2,0.1,1.8c-0.2,0-0.3,0-0.5,0
			s-0.4,0-0.7,0c-0.2,0-0.5,0-0.7,0s-0.4,0-0.5,0c0-0.6,0.1-1.2,0.1-1.8c0-0.6,0-1.3,0-2.1v-2C250.2,467.8,250.1,467.1,250.1,466.5z
			"/>
		<path class="st0" d="M266.2,466.5c0-0.6,0-1.3-0.1-1.9c0.4,0,0.9,0,1.3,0s0.9,0,1.3,0c0.7,0,1.4,0,1.9,0c0.6,0,0.9,0,1.1-0.1
			c0,0.2-0.1,0.4-0.1,0.6c0,0.2,0,0.3,0,0.4c0,0.1,0,0.2,0,0.3c-0.3,0-0.6,0-0.9-0.1c-0.3,0-0.7,0-1-0.1c-0.3,0-0.6,0-0.8,0
			c-0.3,0-0.4,0-0.5,0c0,0.5-0.1,1.1-0.1,1.6c0,0.5,0,1.1,0,1.6c0.6,0,1.2,0,1.7,0c0.5,0,1,0,1.6-0.1c0,0.2-0.1,0.3-0.1,0.4
			c0,0.1,0,0.2,0,0.3c0,0.1,0,0.2,0,0.2c0,0.1,0,0.2,0.1,0.4c-1.1-0.1-2.2-0.1-3.3-0.1c0,0.3,0,0.6,0,0.9c0,0.3,0,0.6,0,0.9
			c0,0.6,0,1.2,0,1.8c0.6,0,1.1,0,1.7,0c0.6,0,1.1-0.1,1.7-0.1c0,0.1,0,0.2,0,0.3c0,0.1,0,0.2,0,0.4c0,0.2,0,0.3,0,0.4
			c0,0.1,0,0.2,0,0.2c-0.3,0-0.6,0-1,0c-0.4,0-0.9,0-1.6,0c-0.6,0-1.1,0-1.4,0c-0.4,0-0.6,0-0.9,0c-0.2,0-0.4,0-0.5,0
			c-0.1,0-0.2,0-0.3,0c0-0.6,0.1-1.2,0.1-1.8c0-0.6,0-1.3,0-2.1v-2C266.3,467.8,266.3,467.1,266.2,466.5z"/>
		<path class="st0" d="M285.3,467.5c0-0.7,0-1.2,0-1.7c0-0.5,0-0.9,0-1.2c0.3,0.1,0.5,0.1,0.7,0.1c0.2,0,0.4,0,0.7-0.1
			c1.1,1.2,2.1,2.3,3.1,3.5c1,1.1,2.1,2.3,3.2,3.5v-1.3v-1.4c0-0.5,0-0.9,0-1.4c0-0.5,0-0.9,0-1.3c0-0.4,0-0.7,0-1
			c0-0.3,0-0.5-0.1-0.6c0.3,0.1,0.5,0.1,0.7,0.1c0.2,0,0.4,0,0.7-0.1c0,0.9-0.1,1.7-0.1,2.4c0,0.7-0.1,1.4-0.1,2c0,0.6,0,1.3,0,1.9
			c0,0.6,0,1.3,0,2v1.7c-0.2,0-0.4,0-0.6,0c-0.2,0-0.4,0-0.6,0c-2-2.3-4.1-4.7-6.3-7c0,0.3,0,0.6,0,0.8c0,0.3,0,0.6,0,0.9v1.7
			c0,0.6,0,1.1,0,1.5c0,0.4,0,0.7,0,1c0,0.3,0,0.5,0,0.7c0,0.2,0,0.3,0,0.4c-0.1,0-0.2,0-0.3,0s-0.2,0-0.3,0c-0.2,0-0.4,0-0.7,0
			c0-0.1,0-0.4,0.1-0.8c0-0.5,0.1-1.1,0.1-1.7c0-0.7,0.1-1.4,0.1-2.2C285.3,469,285.3,468.2,285.3,467.5z"/>
		<path class="st0" d="M315.6,473.5c-0.1,0.2-0.1,0.4-0.1,0.6c-0.8,0.4-1.8,0.6-3,0.6c-0.8,0-1.6-0.1-2.3-0.4
			c-0.7-0.2-1.2-0.6-1.7-1c-0.5-0.4-0.8-0.9-1.1-1.5c-0.2-0.6-0.4-1.2-0.4-1.9c0-1,0.2-1.9,0.5-2.6c0.3-0.7,0.7-1.3,1.3-1.7
			c0.5-0.4,1.1-0.8,1.8-1c0.7-0.2,1.4-0.3,2.2-0.3c0.3,0,0.5,0,0.8,0.1c0.3,0,0.6,0.1,0.8,0.2c0.3,0.1,0.5,0.1,0.7,0.2
			c0.2,0.1,0.4,0.2,0.6,0.3c-0.1,0.2-0.2,0.5-0.2,0.7c-0.1,0.2-0.1,0.5-0.1,0.7h-0.2c-0.4-0.5-0.7-0.8-1.1-1
			c-0.4-0.2-0.8-0.3-1.4-0.3c-0.4,0-0.8,0.1-1.2,0.3c-0.4,0.2-0.7,0.4-1.1,0.8c-0.3,0.4-0.6,0.8-0.8,1.4c-0.2,0.6-0.3,1.2-0.3,2
			c0,0.7,0.1,1.4,0.3,1.9c0.2,0.5,0.5,1,0.8,1.3c0.3,0.3,0.7,0.6,1.1,0.7c0.4,0.2,0.8,0.2,1.2,0.2c0.2,0,0.5,0,0.7-0.1
			c0.2-0.1,0.5-0.1,0.7-0.2c0.2-0.1,0.5-0.2,0.7-0.3c0.2-0.1,0.4-0.3,0.5-0.4l0.2,0.1C315.7,473.1,315.6,473.3,315.6,473.5z"/>
		<path class="st0" d="M328.9,466.5c0-0.6,0-1.3-0.1-1.9c0.4,0,0.9,0,1.3,0s0.9,0,1.3,0c0.7,0,1.4,0,1.9,0c0.6,0,0.9,0,1.1-0.1
			c0,0.2-0.1,0.4-0.1,0.6c0,0.2,0,0.3,0,0.4c0,0.1,0,0.2,0,0.3c-0.3,0-0.6,0-0.9-0.1c-0.3,0-0.7,0-1-0.1c-0.3,0-0.6,0-0.8,0
			c-0.3,0-0.4,0-0.5,0c0,0.5-0.1,1.1-0.1,1.6c0,0.5,0,1.1,0,1.6c0.6,0,1.2,0,1.7,0c0.5,0,1,0,1.6-0.1c0,0.2-0.1,0.3-0.1,0.4
			c0,0.1,0,0.2,0,0.3c0,0.1,0,0.2,0,0.2c0,0.1,0,0.2,0.1,0.4c-1.1-0.1-2.2-0.1-3.3-0.1c0,0.3,0,0.6,0,0.9c0,0.3,0,0.6,0,0.9
			c0,0.6,0,1.2,0,1.8c0.6,0,1.1,0,1.7,0c0.6,0,1.1-0.1,1.7-0.1c0,0.1,0,0.2,0,0.3c0,0.1,0,0.2,0,0.4c0,0.2,0,0.3,0,0.4
			c0,0.1,0,0.2,0,0.2c-0.3,0-0.6,0-1,0c-0.4,0-0.9,0-1.6,0c-0.6,0-1.1,0-1.4,0c-0.4,0-0.6,0-0.9,0c-0.2,0-0.4,0-0.5,0
			c-0.1,0-0.2,0-0.3,0c0-0.6,0.1-1.2,0.1-1.8c0-0.6,0-1.3,0-2.1v-2C329,467.8,328.9,467.1,328.9,466.5z"/>
		<path class="st0" d="M350.3,465.3c-0.4,0-0.8,0.1-1.1,0.4s-0.4,0.6-0.4,0.9c0,0.4,0.1,0.7,0.3,0.9c0.2,0.2,0.5,0.4,0.8,0.6
			c0.3,0.2,0.7,0.4,1.1,0.5c0.4,0.2,0.7,0.4,1.1,0.6c0.3,0.2,0.6,0.5,0.8,0.9c0.2,0.4,0.3,0.8,0.3,1.4c0,0.5-0.1,0.9-0.3,1.3
			c-0.2,0.4-0.4,0.7-0.8,1c-0.3,0.3-0.7,0.5-1.2,0.7c-0.5,0.2-1,0.2-1.6,0.2c-0.5,0-1-0.1-1.4-0.2c-0.4-0.1-0.7-0.2-0.9-0.4
			c0.1-0.3,0.2-0.6,0.2-0.9c0.1-0.3,0.1-0.6,0.2-0.9h0.3c0,0.2,0.1,0.4,0.2,0.6c0.1,0.2,0.2,0.4,0.4,0.5c0.2,0.1,0.4,0.3,0.6,0.3
			c0.2,0.1,0.5,0.1,0.8,0.1c0.6,0,1-0.1,1.3-0.4c0.3-0.3,0.4-0.6,0.4-1c0-0.4-0.1-0.7-0.3-0.9c-0.2-0.2-0.5-0.4-0.8-0.6
			c-0.3-0.2-0.7-0.4-1-0.5c-0.4-0.2-0.7-0.4-1-0.6c-0.3-0.2-0.6-0.5-0.8-0.9s-0.3-0.8-0.3-1.4c0-0.5,0.1-0.9,0.3-1.3
			c0.2-0.4,0.4-0.7,0.7-1c0.3-0.3,0.6-0.5,1-0.6c0.4-0.1,0.8-0.2,1.2-0.2c0.5,0,1,0.1,1.4,0.2c0.4,0.1,0.7,0.3,1,0.5
			c-0.1,0.2-0.2,0.4-0.2,0.6c-0.1,0.2-0.1,0.5-0.2,0.8h-0.2C351.8,465.7,351.2,465.3,350.3,465.3z"/>
		<path class="st0" d="M366.2,474.6c0.2-0.6,0.3-1.1,0.5-1.4s0.3-0.5,0.4-0.6s0.3-0.1,0.5-0.1c0.1,0,0.2,0,0.4,0.1
			c0.1,0,0.2,0.1,0.3,0.2c0.1,0.1,0.2,0.2,0.2,0.3c0.1,0.1,0.1,0.2,0.1,0.4c0,0.1,0,0.2-0.1,0.3c0,0.1-0.2,0.3-0.3,0.6
			c-0.2,0.3-0.4,0.6-0.8,1.1s-0.8,1.2-1.4,2l-0.4-0.1C365.8,476.1,366,475.2,366.2,474.6z"/>
		<path class="st0" d="M387.3,466.5c0-0.6,0-1.3-0.1-1.9c0.2,0,0.3,0,0.5,0.1c0.2,0,0.4,0,0.7,0c0.2,0,0.5,0,0.7,0
			c0.2,0,0.4,0,0.5-0.1c0,0.6-0.1,1.3-0.1,1.9c0,0.6,0,1.3,0,2.1v2c0,0.8,0,1.5,0,2.1c0,0.6,0,1.2,0.1,1.8c-0.2,0-0.3,0-0.5,0
			s-0.4,0-0.7,0c-0.2,0-0.5,0-0.7,0s-0.4,0-0.5,0c0-0.6,0.1-1.2,0.1-1.8c0-0.6,0-1.3,0-2.1v-2C387.3,467.8,387.3,467.1,387.3,466.5z
			"/>
		<path class="st0" d="M403.7,467.5c0-0.7,0-1.2,0-1.7c0-0.5,0-0.9,0-1.2c0.3,0.1,0.5,0.1,0.7,0.1c0.2,0,0.4,0,0.7-0.1
			c1.1,1.2,2.1,2.3,3.1,3.5c1,1.1,2.1,2.3,3.2,3.5v-1.3v-1.4c0-0.5,0-0.9,0-1.4c0-0.5,0-0.9,0-1.3c0-0.4,0-0.7,0-1
			c0-0.3,0-0.5-0.1-0.6c0.3,0.1,0.5,0.1,0.7,0.1c0.2,0,0.4,0,0.7-0.1c0,0.9-0.1,1.7-0.1,2.4c0,0.7-0.1,1.4-0.1,2c0,0.6,0,1.3,0,1.9
			c0,0.6,0,1.3,0,2v1.7c-0.2,0-0.4,0-0.6,0c-0.2,0-0.4,0-0.6,0c-2-2.3-4.1-4.7-6.3-7c0,0.3,0,0.6,0,0.8c0,0.3,0,0.6,0,0.9v1.7
			c0,0.6,0,1.1,0,1.5c0,0.4,0,0.7,0,1c0,0.3,0,0.5,0,0.7c0,0.2,0,0.3,0,0.4c-0.1,0-0.2,0-0.3,0s-0.2,0-0.3,0c-0.2,0-0.4,0-0.7,0
			c0-0.1,0-0.4,0.1-0.8c0-0.5,0.1-1.1,0.1-1.7c0-0.7,0.1-1.4,0.1-2.2C403.7,469,403.7,468.2,403.7,467.5z"/>
		<path class="st0" d="M434,473.5c-0.1,0.2-0.1,0.4-0.1,0.6c-0.8,0.4-1.8,0.6-3,0.6c-0.8,0-1.6-0.1-2.3-0.4c-0.7-0.2-1.2-0.6-1.7-1
			c-0.5-0.4-0.8-0.9-1.1-1.5s-0.4-1.2-0.4-1.9c0-1,0.2-1.9,0.5-2.6c0.3-0.7,0.7-1.3,1.3-1.7c0.5-0.4,1.1-0.8,1.8-1
			c0.7-0.2,1.4-0.3,2.2-0.3c0.3,0,0.5,0,0.8,0.1s0.6,0.1,0.8,0.2c0.3,0.1,0.5,0.1,0.7,0.2c0.2,0.1,0.4,0.2,0.6,0.3
			c-0.1,0.2-0.2,0.5-0.2,0.7c-0.1,0.2-0.1,0.5-0.1,0.7h-0.2c-0.4-0.5-0.7-0.8-1.1-1c-0.4-0.2-0.8-0.3-1.4-0.3
			c-0.4,0-0.8,0.1-1.2,0.3c-0.4,0.2-0.7,0.4-1.1,0.8c-0.3,0.4-0.6,0.8-0.8,1.4c-0.2,0.6-0.3,1.2-0.3,2c0,0.7,0.1,1.4,0.3,1.9
			c0.2,0.5,0.5,1,0.8,1.3c0.3,0.3,0.7,0.6,1.1,0.7c0.4,0.2,0.8,0.2,1.2,0.2c0.2,0,0.5,0,0.7-0.1c0.2-0.1,0.5-0.1,0.7-0.2
			c0.2-0.1,0.5-0.2,0.7-0.3c0.2-0.1,0.4-0.3,0.5-0.4l0.2,0.1C434.2,473.1,434.1,473.3,434,473.5z"/>
		<path class="st0" d="M447.1,473.6c0-0.3,0.1-0.6,0.3-0.8c0.2-0.2,0.5-0.3,0.8-0.3c0.3,0,0.6,0.1,0.8,0.3c0.2,0.2,0.3,0.5,0.3,0.8
			s-0.1,0.6-0.3,0.8c-0.2,0.2-0.5,0.3-0.8,0.3c-0.3,0-0.6-0.1-0.8-0.3C447.2,474.2,447.1,473.9,447.1,473.6z"/>
	</g>
	<path class="st0" d="M150.4,400.8c-0.2-3.9-0.3-7.9-0.5-11.9c1.5,0.1,3,0.2,4.5,0.3c1.5,0.1,3,0.1,4.5,0.1c0.7,0,1.6,0,2.7-0.1
		c1-0.1,2.1-0.1,3.2-0.1c1.1,0,2.1-0.1,3.1-0.1c1-0.1,1.8-0.1,2.5-0.1c0.9,0,2.1,0,3.4,0.1c1.4,0.1,2.8,0.2,4.3,0.6
		c1.5,0.3,3,0.8,4.5,1.4c1.5,0.6,2.8,1.5,4,2.7c1.2,1.2,2.2,2.6,2.9,4.4c0.7,1.7,1.1,3.9,1.1,6.5c0,4.1-0.9,7.3-2.6,9.9
		c-1.7,2.5-3.9,4.5-6.4,5.9c-2.5,1.4-5.3,2.4-8.1,2.9c-2.9,0.5-5.4,0.7-7.6,0.7c-1.4,0-2.7,0-3.9,0c-1.2,0-2.4-0.1-3.6-0.2v5.1
		c0,4.1,0.1,8,0.2,12c0.2,3.9,0.3,7.8,0.5,11.6c-1.4-0.1-2.9-0.2-4.5-0.2c-1.6,0-3.1,0.1-4.5,0.2c0.2-3.8,0.4-7.7,0.5-11.6
		c0.2-3.9,0.2-7.9,0.2-12v-15.8C150.6,408.7,150.6,404.7,150.4,400.8z M164.7,420.4c1.9,0,3.9-0.2,5.9-0.6c2-0.4,3.9-1.2,5.6-2.3
		c1.7-1.1,3.1-2.7,4.1-4.7c1.1-2,1.6-4.6,1.6-7.7c0-2.6-0.4-4.8-1.1-6.4c-0.7-1.7-1.8-2.9-3.1-3.9c-1.3-0.9-2.9-1.6-4.8-1.9
		c-1.9-0.3-4.1-0.5-6.4-0.5h-8.3v27.4C160.3,420.1,162.4,420.4,164.7,420.4z"/>
	<path class="st0" d="M300.4,450c-1.2,0.6-2.6,1.1-4.3,1.6c-1.7,0.5-3.6,0.9-5.7,1.2c-2.1,0.4-4.3,0.6-6.5,0.6
		c-4.8,0-9.3-0.7-13.4-2.1c-4.1-1.4-7.7-3.5-10.6-6.3c-3-2.8-5.3-6.3-7-10.4c-1.7-4.1-2.5-8.7-2.5-14c0-5.2,0.8-9.9,2.5-14
		c1.7-4.1,4.1-7.5,7.1-10.4c3-2.8,6.7-5,10.9-6.4c4.2-1.5,8.9-2.2,14-2.2c4.1,0,7.7,0.4,11.1,1.2c3.3,0.8,6.3,1.8,8.9,3
		c-0.5,0.9-0.9,2-1.2,3.5c-0.3,1.5-0.6,2.7-0.7,3.7l-0.6,0.2c-0.6-0.7-1.5-1.6-2.6-2.5c-1.1-0.9-2.4-1.8-3.9-2.7
		c-1.5-0.9-3.1-1.6-5-2.2c-1.8-0.6-3.9-0.9-6.1-0.9c-3.6,0-7,0.6-10.1,1.7c-3.1,1.2-5.8,3-8.1,5.4c-2.3,2.4-4.1,5.5-5.4,9.2
		c-1.3,3.7-1.9,8.1-1.9,13.2c0,5.1,0.6,9.5,1.9,13.2c1.3,3.7,3.1,6.8,5.4,9.2c2.3,2.4,5,4.2,8.1,5.4c3.1,1.2,6.5,1.7,10.1,1.7
		c2.2,0,4.2-0.3,6.1-0.8c1.9-0.6,3.6-1.2,5.2-2c1.6-0.8,3-1.6,4.2-2.5c1.3-0.9,2.3-1.7,3.2-2.3l0.4,0.4l-0.8,5.4
		C302.5,448.8,301.6,449.4,300.4,450z"/>
	<path class="st0" d="M316.6,400.8c-0.2-3.9-0.3-7.9-0.5-11.9c0.8,0.1,1.6,0.2,2.3,0.3c0.7,0.1,1.5,0.1,2.2,0.1s1.5,0,2.2-0.1
		c0.7-0.1,1.5-0.2,2.3-0.3c-0.2,4.1-0.4,8-0.5,11.9c-0.2,3.9-0.2,7.9-0.2,11.9v15.8c0,4.1,0.1,8,0.2,12c0.2,3.9,0.3,7.8,0.5,11.6
		c-1.4-0.1-2.9-0.2-4.5-0.2c-1.6,0-3.1,0.1-4.5,0.2c0.2-3.8,0.4-7.7,0.5-11.6c0.2-3.9,0.2-7.9,0.2-12v-15.8
		C316.9,408.7,316.8,404.7,316.6,400.8z"/>
	<path class="st0" d="M340.5,400.8c-0.2-3.9-0.3-7.9-0.5-11.9c1.8,0.1,3.5,0.2,5.2,0.3c1.7,0.1,3.5,0.1,5.2,0.1
		c1.8,0,3.5-0.1,5.3-0.2c1.7-0.2,3.5-0.2,5.2-0.2c2.6,0,5,0.2,7.4,0.7c2.3,0.5,4.4,1.3,6.1,2.4c1.7,1.1,3.1,2.6,4.1,4.5
		c1,1.8,1.5,4.1,1.5,6.9c0,2.9-0.7,5.5-2,7.6c-1.3,2.1-2.9,3.9-4.8,5.2c-1.9,1.4-3.9,2.5-6.1,3.2c-2.2,0.8-4.2,1.3-5.9,1.5
		c0.7,0.9,1.7,2.2,3,3.9c1.3,1.7,2.7,3.5,4.3,5.5c1.6,2,3.3,4.1,5,6.3c1.7,2.2,3.4,4.3,5,6.3c1.6,2,3.1,3.8,4.5,5.5
		c1.4,1.7,2.5,2.9,3.4,3.8c-0.9-0.1-1.8-0.2-2.8-0.2c-0.9,0-1.8,0-2.8,0c-0.9,0-1.7,0-2.7,0c-0.9,0-1.8,0.1-2.7,0.2
		c-0.9-1.3-2.3-3.2-4.2-5.8c-1.9-2.6-3.9-5.3-6.2-8.3c-2.3-2.9-4.6-5.9-7-8.8c-2.4-2.9-4.5-5.4-6.5-7.4h-3.5v6.7c0,4.1,0.1,8,0.2,12
		c0.2,3.9,0.3,7.8,0.5,11.6c-1.4-0.1-2.9-0.2-4.5-0.2c-1.6,0-3.1,0.1-4.5,0.2c0.2-3.8,0.4-7.7,0.5-11.6c0.2-3.9,0.2-7.9,0.2-12
		v-15.8C340.7,408.7,340.6,404.7,340.5,400.8z M351.1,418.3c1,0.1,2.1,0.1,3.4,0.1c1.9,0,3.9-0.2,5.9-0.6c2.1-0.4,3.9-1.2,5.7-2.3
		c1.7-1.1,3.1-2.5,4.3-4.3c1.1-1.8,1.7-4.1,1.7-6.9c0-2.4-0.4-4.4-1.3-5.9c-0.9-1.6-2-2.8-3.5-3.7c-1.4-0.9-2.9-1.6-4.6-1.9
		c-1.7-0.3-3.3-0.5-4.9-0.5c-2.2,0-3.9,0-5.3,0.1c-1.4,0.1-2.6,0.2-3.6,0.3c-0.1,3.4-0.2,6.7-0.4,10c-0.1,3.3-0.2,6.6-0.2,9.9v5.3
		C349.1,418.1,350.1,418.3,351.1,418.3z"/>
	<path class="st0" d="M448.9,451.5c-144.4-197.8-259.4,0.8-259.4,0.8S306.4,274.1,448.9,451.5L448.9,451.5z"/>
	<path class="st0" d="M244.5,445.7c-1.3-2.8-2.7-6-4.2-9.6c-1.6-3.6-3.2-7.5-5-11.6c-1.8-4.2-3.6-8.4-5.3-12.6
		c-1.8-4.2-3.5-8.4-5.2-12.6c-1.7-4.1-3.3-8-4.8-11.6h-1.7c-4.8,11-9.5,21.8-14.3,32.4c-4.7,10.6-9.6,21.3-14.6,32
		c1-0.1,2.2-0.2,3.4-0.2c1.2,0,2.4,0.1,3.4,0.2c0.8-2.8,2-6.4,3.6-10.7c1.5-4.1,3.2-8.5,5.1-13l0,0l2.4-5.6l9.7-22.7l10.2,23.4
		l1.7,5.2h0c0.7,1.7,1.4,3.5,2.2,5.4c0.9,2.2,1.8,4.5,2.7,6.6c0.9,2.2,1.7,4.3,2.4,6.3c0.7,2,1.3,3.7,1.8,5.1
		c0.9-0.1,1.7-0.2,2.4-0.2c0.8,0,1.6,0,2.4,0c0.9,0,1.7,0,2.4,0c0.8,0,1.6,0.1,2.4,0.2C246.8,450.7,245.8,448.5,244.5,445.7z"/>
	<path class="st0" d="M446.8,445.7c-1.3-2.8-2.7-6-4.2-9.6c-1.6-3.6-3.2-7.5-5-11.6c-1.8-4.2-3.6-8.4-5.3-12.6
		c-1.8-4.2-3.5-8.4-5.2-12.6c-1.7-4.1-3.3-8-4.8-11.6h-1.8c-4.8,11-9.5,21.8-14.3,32.4c-4.7,10.6-9.6,21.3-14.6,32
		c1-0.1,2.2-0.2,3.4-0.2c1.2,0,2.4,0.1,3.4,0.2c0.8-2.8,2-6.4,3.6-10.7c1.5-4.1,3.2-8.5,5.1-13l0,0l2.4-5.6l9.7-22.7l10.2,23.4
		l1.7,5.2h0c0.7,1.7,1.4,3.5,2.2,5.4c0.9,2.2,1.8,4.5,2.7,6.6c0.9,2.2,1.7,4.3,2.4,6.3c0.7,2,1.3,3.7,1.8,5.1
		c0.9-0.1,1.7-0.2,2.4-0.2c0.8,0,1.6,0,2.4,0c0.9,0,1.7,0,2.4,0c0.8,0,1.6,0.1,2.4,0.2C449,450.7,448,448.5,446.8,445.7z"/>
</g>
</svg>
