<?xml version="1.0" encoding="utf-8"?>
<!-- Generator: Adobe Illustrator 24.1.2, SVG Export Plug-In . SVG Version: 6.00 Build 0)  -->
<svg version="1.1" id="Layer_1" xmlns="http://www.w3.org/2000/svg" xmlns:xlink="http://www.w3.org/1999/xlink" x="0px" y="0px"
	 viewBox="0 0 612 792" style="enable-background:new 0 0 612 792;" xml:space="preserve">
<style type="text/css">
	.st0{fill:#FBE19B;}
</style>
<g>
	<path class="st0" d="M155,326.9l-1.2-0.6l-2,4.3l1.8,0.8c1.4,0.6,2,1.2,1.5,2.1c-0.4,1-1.3,0.8-2.5,0.2l-11.6-5.4
		c-1.2-0.6-1.7-1.1-1.3-2c0.4-0.9,1.1-0.9,2.4-0.3l1.9,0.9l2-4.3l-1.4-0.6c-2.9-1.3-6.3-2-8.4,2.7c-1.6,3.5-0.5,6.4,3.3,8.1l10.8,5
		c4,1.9,6.8,1.2,8.5-2.6C161.1,330.3,157.8,328.2,155,326.9z"/>
	
		<rect x="154.6" y="300.2" transform="matrix(0.518 -0.8554 0.8554 0.518 -191.536 284.7515)" class="st0" width="4.7" height="24.2"/>
	<path class="st0" d="M170.8,292c0.2-1.1,0.3-2.8-2.5-5l-0.7-0.5c-3.4-2.6-6-2.1-8.5,1.1l-3.7,4.8l19.2,14.8l2.8-3.7l-8.4-6.4
		l0.3-0.4c1.1-1.4,1.6-1.4,3.8,0.3c2.5,1.9,4.9,3.8,6,4.3l2.8-3.6c-1.1-0.6-3.9-2.8-5.8-4.2C173.6,291.3,172.3,291.2,170.8,292z
		 M166.6,294.4l-0.4,0.5l-5-3.9l0.4-0.6c1-1.4,1.9-1.1,3.2-0.1l0.9,0.7C167.6,292.3,167.6,293.1,166.6,294.4z"/>
	<path class="st0" d="M191.8,275.7l-3.3,3.3l1.4,1.4c1.1,1.1,1.4,1.8,0.7,2.5c-0.7,0.7-1.5,0.3-2.4-0.6l-9.1-9.1
		c-1-1-1.2-1.6-0.5-2.3c0.7-0.7,1.4-0.4,2.3,0.5l1.5,1.5l3.3-3.3l-1.1-1.1c-2.2-2.2-5.2-4-8.8-0.4c-2.7,2.7-2.7,5.8,0.3,8.8l8.4,8.4
		c3.2,3.2,6,3.4,8.9,0.5c3.9-3.9,1.6-7.1-0.6-9.3L191.8,275.7z"/>
	<polygon class="st0" points="206.4,268.4 194,252.5 190.3,255.4 205.3,274.5 213.3,268.3 211.1,264.8 	"/>
	<polygon class="st0" points="223.5,256.6 220.1,250.9 224.4,248.4 222.2,244.8 218,247.4 215.2,242.9 219.7,240.2 217.6,236.6 
		209.1,241.8 221.7,262.5 230.2,257.4 228.5,253.6 	"/>
	<path class="st0" d="M257.4,226.5c-1.6-4.6-4.6-5.7-8.2-4.4c-3.5,1.2-5.3,4-3.8,8.4l3.7,10.8c1.5,4.5,4.2,5.8,8,4.5
		c4-1.4,5.5-4.1,3.9-8.6L257.4,226.5z M256,241.9c-1,0.3-1.7-0.2-2.2-1.7l-4-11.7c-0.5-1.5-0.2-2.4,0.7-2.7c1.1-0.4,1.8,0.2,2.2,1.6
		l4,11.7C257.3,240.7,257,241.5,256,241.9z"/>
	<polygon class="st0" points="280.3,224.4 275.3,225.4 274.3,220 279.6,218.9 278.8,214.9 268.9,216.8 273.5,240.6 278.1,239.7 
		276.1,229.4 281.1,228.5 	"/>
	<polygon class="st0" points="317.2,217.2 317.4,213 307.4,212.7 306.6,237 316.6,237.3 317.3,233.2 311.4,233 311.6,226.4 
		316.6,226.6 316.8,222.5 311.8,222.3 312,217 	"/>
	<path class="st0" d="M338.7,215.8c-0.1,0.5-2.8,6.6-2.9,7.3l-0.1,0c0.1-0.6-0.2-7.3-0.1-7.8l-4.9-0.9L332,227l-5.7,11.3l4.6,0.8
		c0.2-0.7,3.1-7.1,3.2-7.9l0.1,0c-0.1,1,0.3,7.6,0.2,8.5l4.9,0.9l-1.5-13.3l5.5-10.6L338.7,215.8z"/>
	<path class="st0" d="M361.5,221.3c-3.7-1.2-6.4,0.3-7.7,4.3l-3.7,11.3c-1.4,4.2-0.4,6.9,3.5,8.1c5.3,1.7,7-1.8,8-4.7l0.4-1.2
		l-4.5-1.5l-0.6,1.9c-0.5,1.5-1,2.1-2,1.8c-1-0.3-0.9-1.2-0.5-2.5l4-12.2c0.4-1.3,0.9-1.8,1.8-1.5c0.9,0.3,1,1,0.6,2.3l-0.6,2
		l4.5,1.5l0.5-1.4C366.1,226.4,366.3,222.9,361.5,221.3z"/>
	<polygon class="st0" points="386.7,236.7 388.4,232.9 379.5,228.6 369,250.5 378,254.8 380.3,251.4 375,248.8 377.8,242.9 
		382.3,245 384.1,241.3 379.6,239.2 381.9,234.4 	"/>
	<polygon class="st0" points="400.3,239.6 387.2,260 395.7,265.5 398.2,262.3 393.3,259.1 404.2,242.1 	"/>
	<polygon class="st0" points="422.9,255.8 419.3,252.8 403.9,271.5 411.7,278 414.6,275.1 410.1,271.4 	"/>
	<polygon class="st0" points="433.5,284.5 436.5,281.7 433,278.1 436.9,274.4 440.5,278.2 443.5,275.3 436.6,268.2 419.1,284.9 
		426,292.1 429.3,289.7 425.3,285.5 430.1,280.9 	"/>
	<path class="st0" d="M457.2,292.3l-3.2,2.4c-2.7,2-6.2,4.8-8.6,6.9l-0.1-0.1c0.7-0.8,8.1-9.3,10-11.7l-3.1-4.1l-19.5,14.4l2.5,3.4
		l3.3-2.5c3.1-2.3,6.9-5.3,9-7.1l0.1,0.1c-0.5,0.6-9,10.2-10.6,12l3.1,4.2l19.5-14.4L457.2,292.3z"/>
	<path class="st0" d="M458.9,326l-2.3-4.1l-1.8,1c-1.3,0.7-2.1,0.8-2.6,0c-0.5-0.9,0.2-1.5,1.3-2.2l11.2-6.2
		c1.2-0.7,1.9-0.7,2.4,0.1c0.5,0.9,0,1.4-1.2,2.1l-1.8,1l2.3,4.1l1.3-0.7c2.8-1.5,5.3-3.9,2.8-8.4c-1.9-3.4-4.8-4.2-8.5-2.1
		l-10.4,5.8c-3.9,2.2-5,4.8-3,8.4c2.7,4.9,6.4,3.5,9.1,2L458.9,326z"/>
	<polygon class="st0" points="456.2,339.2 459.9,348.5 463.9,347.5 461.8,342 467.9,339.6 469.8,344.2 473.6,342.7 471.7,338.1 
		476.7,336.1 478.6,341 482.4,339.5 478.8,330.3 	"/>
	<polygon class="st0" points="151,447.7 153.2,447.1 150,436.2 147.9,436.9 149.1,441.1 137.5,444.4 138.2,446.9 149.8,443.5 	"/>
	<polygon class="st0" points="158.5,461 153.2,463.2 150.6,457 156,454.8 155,452.4 141.8,457.8 142.8,460.2 148.6,457.8 151.1,464 
		145.3,466.4 146.2,468.7 159.5,463.3 	"/>
	<polygon class="st0" points="165.1,479.2 167,478.1 162.6,469.8 150,476.5 154.6,485.2 156.6,484.1 153.1,477.7 156.7,475.8 
		159.8,481.6 161.7,480.5 158.6,474.8 161.8,473 	"/>
	<path class="st0" d="M174.7,501.8L174.7,501.8c0.7,0.4,1.3,0.7,2,0.7c0.7,0.1,1.4-0.2,2-0.6c0.5-0.4,0.9-0.8,1.1-1.3
		c0.2-0.5,0.3-1,0.3-1.5c0-0.5-0.1-1-0.3-1.5c-0.2-0.5-0.5-1-0.8-1.4l-3.3-4.5l-11.5,8.5l3.1,4.1c0.4,0.5,0.9,1,1.4,1.5
		c0.5,0.4,1,0.8,1.6,1c0.6,0.2,1.1,0.3,1.8,0.2c0.6-0.1,1.2-0.3,1.9-0.8c0.8-0.6,1.2-1.3,1.4-2.1
		C175.3,503.4,175.1,502.6,174.7,501.8z M172.4,504.2c-0.4,0.3-0.7,0.4-1.1,0.4s-0.7-0.1-1-0.2c-0.3-0.2-0.6-0.4-0.9-0.7
		c-0.3-0.3-0.5-0.5-0.7-0.8l-1.4-1.8l3.3-2.5l1.4,1.9c0.6,0.8,1,1.5,1,2.1C173.3,503.2,173,503.7,172.4,504.2z M173.9,499.1
		l-1.3-1.8l3-2.2l1.2,1.6c0.6,0.8,0.9,1.4,0.9,2c0.1,0.5-0.2,1-0.7,1.4c-0.5,0.4-1,0.5-1.5,0.3C174.9,500.2,174.4,499.8,173.9,499.1
		z"/>
	<path class="st0" d="M189.1,508.7l-14.8,5l1.9,2.1l3.3-1.2l4.2,4.6l-1.5,3.2l1.9,2.2l6.5-14.2L189.1,508.7z M184.7,517l-3-3.3
		l5.8-2.2L184.7,517z"/>
	<polygon class="st0" points="205.4,524.8 201.6,529.1 196.6,524.6 200.5,520.3 198.6,518.6 189,529.3 190.9,531 195.1,526.2 
		200.1,530.7 195.9,535.4 197.8,537.1 207.3,526.5 	"/>
	<path class="st0" d="M203,541.5l2.3,1.7l3-1.9l5,3.6l-0.8,3.4l2.4,1.7l3.4-15.2l-1.8-1.3L203,541.5z M213.9,542.6l-3.6-2.6l5.2-3.4
		L213.9,542.6z"/>
	<polygon class="st0" points="237.7,546.9 229.5,554 229.5,554 231.2,543.3 227.7,541.4 220.8,553.9 222.9,555.1 228.5,545 
		228.5,545 226.7,557.2 228.2,558 237.6,550.1 237.6,550.1 232,560.2 234.2,561.4 241.2,548.9 	"/>
	<path class="st0" d="M251.7,553.4l-11.1,11l2.6,1.1l2.4-2.6l5.8,2.3l0,3.5l2.7,1.1l-0.4-15.6L251.7,553.4z M251.4,562.8l-4.1-1.6
		l4.2-4.6L251.4,562.8z"/>
	<path class="st0" d="M271.3,559.9c-0.7-0.4-1.3-0.8-2-1c-0.6-0.2-1.3-0.3-1.9-0.3c-0.6,0-1.3,0.1-1.8,0.3c-0.6,0.2-1.1,0.5-1.5,0.9
		c-0.4,0.4-0.7,1-0.9,1.7c-0.2,0.6-0.2,1.2-0.1,1.7c0.1,0.5,0.3,0.9,0.5,1.3c0.2,0.4,0.6,0.7,0.9,1c0.4,0.3,0.7,0.6,1.1,0.8
		c0.4,0.3,0.8,0.5,1.1,0.7c0.4,0.2,0.7,0.5,0.9,0.7c0.2,0.3,0.4,0.5,0.5,0.8c0.1,0.3,0.1,0.6,0,1c-0.1,0.4-0.3,0.7-0.5,0.9
		s-0.5,0.4-0.8,0.5c-0.3,0.1-0.6,0.2-0.9,0.1c-0.3,0-0.6-0.1-0.9-0.1c-0.5-0.1-1.1-0.4-1.6-0.9c-0.5-0.4-0.8-0.9-1.1-1.5l-2.2,1.2
		c0.4,0.8,0.9,1.5,1.7,2c0.8,0.6,1.6,1,2.5,1.2c0.7,0.2,1.3,0.3,2,0.3c0.7,0,1.3-0.1,1.8-0.4c0.6-0.2,1-0.6,1.5-1.1
		c0.4-0.5,0.7-1.1,0.9-1.8c0.2-0.7,0.2-1.3,0.1-1.8c-0.1-0.5-0.4-1-0.7-1.4c-0.3-0.4-0.7-0.8-1.1-1.1c-0.4-0.3-0.8-0.6-1.2-0.9
		c-0.4-0.2-0.7-0.4-1-0.6c-0.3-0.2-0.5-0.4-0.7-0.6c-0.2-0.2-0.3-0.5-0.4-0.7c-0.1-0.3-0.1-0.5,0-0.9c0.1-0.3,0.2-0.6,0.5-0.8
		c0.2-0.2,0.5-0.3,0.7-0.4c0.3-0.1,0.6-0.1,0.9-0.1c0.3,0,0.6,0,0.9,0.1c0.5,0.1,0.9,0.4,1.3,0.7c0.4,0.4,0.7,0.7,0.9,1.1l2.1-1.3
		C272.5,560.9,272,560.4,271.3,559.9z"/>
	
		<rect x="278.9" y="567.3" transform="matrix(0.1108 -0.9938 0.9938 0.1108 -307.8676 792.6003)" class="st0" width="20.2" height="2.1"/>
	<path class="st0" d="M315.1,564.6c-0.5-0.3-1.1-0.5-1.7-0.6c-0.7-0.1-1.4-0.2-2.2-0.1l-4.7,0.2l0.7,14.3l2.5-0.1l-0.3-5.9l2-0.1
		c0.8,0,1.5-0.1,2.1-0.3c0.7-0.2,1.2-0.4,1.7-0.8s0.9-0.8,1.1-1.4s0.4-1.2,0.4-2c0-0.7-0.2-1.4-0.5-1.9
		C316,565.3,315.6,564.9,315.1,564.6z M314,568.9c-0.2,0.3-0.4,0.5-0.7,0.7c-0.3,0.2-0.6,0.3-1,0.4c-0.4,0.1-0.8,0.1-1.2,0.1
		l-1.8,0.1l-0.2-4.1l1.9-0.1c0.4,0,0.8,0,1.1,0c0.4,0,0.7,0.1,1,0.2c0.3,0.1,0.5,0.3,0.7,0.6c0.2,0.3,0.3,0.6,0.3,1
		C314.2,568.3,314.1,568.6,314,568.9z"/>
	<path class="st0" d="M326,562.4l-4.1,15l2.8-0.4l0.8-3.4l6.1-0.9l1.8,3l2.9-0.4l-8.2-13.3L326,562.4z M326.1,571.4l1.4-6.1l3,5.4
		L326.1,571.4z"/>
	<path class="st0" d="M350.3,564.1c0.4-0.8,0.5-1.7,0.2-2.7c-0.2-0.7-0.5-1.3-0.9-1.7c-0.4-0.4-0.9-0.7-1.5-0.9
		c-0.6-0.2-1.2-0.3-1.8-0.3c-0.6,0-1.3,0.1-1.9,0.3l-4.8,1.2l3.6,13.8l2.5-0.6l-1.5-5.9l1.8-0.5l4.7,5l3-0.8l-5.3-5.2
		C349.2,565.5,349.9,564.9,350.3,564.1z M348,563.2c-0.1,0.3-0.3,0.6-0.5,0.8c-0.2,0.2-0.5,0.4-0.9,0.5c-0.3,0.1-0.7,0.3-1,0.4
		l-2,0.5l-1-3.9l2.2-0.6c0.3-0.1,0.6-0.1,1-0.2c0.3,0,0.7,0,1,0.1c0.3,0.1,0.6,0.2,0.8,0.4c0.2,0.2,0.4,0.5,0.5,0.9
		C348.1,562.5,348.1,562.8,348,563.2z"/>
	<path class="st0" d="M359.8,554l-0.8,15.6l2.7-1l0.1-3.5l5.8-2.2l2.4,2.6l2.7-1l-10.8-11.2L359.8,554z M361.8,562.7l0.1-6.2
		l4.1,4.7L361.8,562.7z"/>
	<path class="st0" d="M385.2,546.6c-0.8-0.6-1.7-1-2.6-1.1c-0.9-0.2-1.9-0.1-2.8,0.1c-1,0.2-1.8,0.5-2.7,0.9l-4.5,2.3l6.5,12.8
		l4.5-2.3c0.8-0.4,1.6-1,2.3-1.6c0.7-0.7,1.3-1.4,1.7-2.3c0.4-0.9,0.6-1.8,0.6-2.8c0-1-0.3-2.1-0.8-3.2
		C386.7,548.1,386,547.2,385.2,546.6z M385.1,554.9c-0.3,0.6-0.7,1.1-1.2,1.5c-0.5,0.4-1.1,0.8-1.7,1.1l-1.9,1l-4.5-8.8l1.9-1
		c0.6-0.3,1.2-0.5,1.9-0.7c0.6-0.2,1.3-0.2,1.9-0.1c0.6,0.1,1.3,0.3,1.8,0.8c0.6,0.4,1.1,1.1,1.6,2c0.4,0.9,0.7,1.7,0.6,2.4
		C385.5,553.7,385.4,554.3,385.1,554.9z"/>
	
		<rect x="393.2" y="537.8" transform="matrix(0.8501 -0.5266 0.5266 0.8501 -227.8463 289.4085)" class="st0" width="2.5" height="14.3"/>
	<path class="st0" d="M411.2,537.1c-0.4-0.6-0.9-1-1.4-1.2c-0.5-0.2-1-0.3-1.5-0.4c-0.5,0-1,0.1-1.5,0.2c-0.5,0.1-1,0.3-1.4,0.4
		c-0.4,0.1-0.8,0.3-1.1,0.4c-0.3,0.1-0.7,0.2-0.9,0.2c-0.3,0-0.6,0-0.8-0.1c-0.2-0.1-0.5-0.3-0.6-0.6c-0.2-0.3-0.3-0.6-0.3-0.9
		c0-0.3,0-0.6,0.1-0.8c0.1-0.3,0.3-0.5,0.5-0.8c0.2-0.2,0.4-0.4,0.7-0.6c0.4-0.3,0.9-0.5,1.4-0.6c0.5-0.1,1-0.1,1.4,0l0.3-2.4
		c-0.7-0.1-1.5,0-2.3,0.2c-0.8,0.2-1.4,0.6-2,1c-0.5,0.4-1,0.8-1.4,1.3c-0.4,0.5-0.7,1-0.9,1.6c-0.2,0.6-0.3,1.2-0.2,1.8
		c0.1,0.6,0.3,1.2,0.7,1.8c0.4,0.5,0.8,0.9,1.3,1.2c0.4,0.2,0.9,0.4,1.3,0.4c0.5,0,0.9,0,1.4-0.1c0.5-0.1,0.9-0.2,1.3-0.4
		c0.4-0.1,0.9-0.3,1.3-0.4c0.4-0.1,0.8-0.2,1.1-0.2c0.3,0,0.7,0,1,0.1c0.3,0.1,0.5,0.3,0.8,0.6c0.2,0.3,0.4,0.6,0.4,0.9
		c0,0.3,0,0.6-0.1,0.9c-0.1,0.3-0.3,0.6-0.5,0.8c-0.2,0.2-0.4,0.5-0.7,0.6c-0.5,0.3-1,0.6-1.6,0.7c-0.6,0.1-1.2,0.1-1.8-0.1
		l-0.5,2.4c0.9,0.2,1.7,0.2,2.7-0.1c0.9-0.2,1.8-0.6,2.5-1.2c0.6-0.4,1-0.9,1.4-1.4c0.4-0.5,0.7-1.1,0.8-1.7
		c0.2-0.6,0.2-1.2,0.1-1.8C411.9,538.4,411.6,537.7,411.2,537.1z"/>
	<polygon class="st0" points="420.3,532.1 417.6,529.1 422.5,524.8 421.1,523.2 416.2,527.5 413.8,524.8 418.9,520.2 417.5,518.5 
		410.4,524.8 419.8,535.5 427.2,529 425.7,527.3 	"/>
	
		<rect x="433.7" y="503.4" transform="matrix(0.6534 -0.757 0.757 0.6534 -235.7261 506.2293)" class="st0" width="2.5" height="14.3"/>
	<path class="st0" d="M448.5,498c-0.6-0.4-1.1-0.7-1.7-0.7c-0.5-0.1-1,0-1.5,0.1c-0.5,0.1-1,0.4-1.4,0.6c-0.4,0.3-0.9,0.6-1.2,0.8
		c-0.3,0.3-0.7,0.5-0.9,0.7c-0.3,0.2-0.6,0.3-0.8,0.4c-0.3,0.1-0.5,0.1-0.8,0.1c-0.3,0-0.5-0.1-0.8-0.3c-0.3-0.2-0.5-0.4-0.6-0.7
		c-0.1-0.3-0.2-0.6-0.1-0.8c0-0.3,0.1-0.6,0.2-0.9c0.1-0.3,0.3-0.5,0.4-0.8c0.3-0.4,0.7-0.7,1.2-1s0.9-0.4,1.4-0.4l-0.5-2.4
		c-0.7,0.1-1.4,0.4-2.1,0.9c-0.6,0.5-1.2,1-1.6,1.6c-0.4,0.5-0.7,1.1-0.9,1.7c-0.2,0.6-0.4,1.2-0.4,1.8c0,0.6,0.1,1.2,0.3,1.7
		c0.2,0.6,0.7,1,1.2,1.5c0.5,0.4,1.1,0.6,1.6,0.7c0.5,0.1,1,0.1,1.4,0c0.5-0.1,0.9-0.3,1.3-0.5c0.4-0.2,0.8-0.5,1.2-0.8
		c0.4-0.3,0.7-0.5,1.1-0.8c0.3-0.2,0.7-0.4,1-0.6c0.3-0.1,0.6-0.2,0.9-0.2c0.3,0,0.6,0.1,0.9,0.3c0.3,0.2,0.5,0.5,0.7,0.8
		c0.1,0.3,0.2,0.6,0.2,0.9c0,0.3-0.1,0.6-0.2,0.9c-0.1,0.3-0.3,0.6-0.4,0.8c-0.3,0.5-0.8,0.8-1.4,1.1s-1.2,0.5-1.8,0.5l0.3,2.5
		c0.9-0.1,1.7-0.3,2.5-0.9c0.8-0.5,1.5-1.1,2-1.9c0.4-0.6,0.7-1.2,1-1.8c0.2-0.6,0.3-1.2,0.3-1.8c0-0.6-0.2-1.2-0.5-1.8
		C449.6,498.9,449.1,498.4,448.5,498z"/>
	<polygon class="st0" points="456.2,493.8 460.6,486.4 458.7,485.2 455.6,490.5 445.2,484.3 443.9,486.5 	"/>
	<path class="st0" d="M464.4,479l-2.4-2.5l2.6-5.6l3.5,0.1l1.2-2.6l-15.6-0.3l-0.9,2l10.5,11.6L464.4,479z M456,470.3l6.2,0.4
		l-1.8,4L456,470.3z"/>
	<polygon class="st0" points="472.4,459.1 461.8,456 461.9,455.9 474.4,452.6 475.3,449.5 461.6,445.4 460.9,447.8 471.1,450.9 
		471.1,450.9 459,454.2 458,457.5 471.7,461.5 	"/>
	<path class="st0" d="M477.9,435.7c0.1-0.9,0.1-1.9,0-2.8c-0.1-1-0.4-1.9-0.9-2.7c-0.5-0.8-1.1-1.5-1.9-2.1c-0.8-0.6-1.9-1-3.1-1.1
		c-1.3-0.2-2.5-0.1-3.4,0.2c-1,0.3-1.8,0.8-2.4,1.5c-0.7,0.7-1.2,1.5-1.5,2.4c-0.4,0.9-0.6,1.8-0.8,2.7l-0.7,5l14.2,2L477.9,435.7z
		 M475.7,435.7l-0.3,2.1l-9.8-1.4l0.3-2.1c0.1-0.7,0.3-1.3,0.5-1.9c0.2-0.6,0.6-1.2,1-1.7c0.4-0.5,1-0.8,1.7-1.1
		c0.7-0.2,1.5-0.3,2.5-0.2c1,0.1,1.7,0.4,2.3,0.8c0.6,0.4,1,0.9,1.3,1.5s0.5,1.2,0.5,1.9C475.8,434.4,475.7,435.1,475.7,435.7z"/>
	<path class="st0" d="M140.3,367.3c-3.3,0-5.9,2.7-5.9,5.9c0,3.3,2.7,5.9,5.9,5.9s5.9-2.7,5.9-5.9
		C146.2,370,143.5,367.3,140.3,367.3z"/>
	<path class="st0" d="M472.5,367.3c-3.3,0-5.9,2.7-5.9,5.9c0,3.3,2.7,5.9,5.9,5.9c3.3,0,5.9-2.7,5.9-5.9
		C478.4,370,475.8,367.3,472.5,367.3z"/>
	<path class="st0" d="M303.6,290.6c-5.6,0.2-10.6,2.5-15.2,5.4c-1.3,0.8-2.2,1-3.7,0.2c-4.2-2.4-8.7-3.7-13.6-2.5
		c-1,0.2-2,0.8-3,1.2c7.2,2.4,14.5,3.3,20.8,7.6c6.8-5.2,15.1-7.4,23.7-9.3C309.8,291,306.7,290.5,303.6,290.6z"/>
	<path class="st0" d="M324.2,304.2c-3.4,0.6-6.4,2-9.3,3.9c-1,0.7-1.7,0.6-2.6,0.1c-2.9-1.6-6-2.5-9.4-1.9c-0.9,0.2-1.7,0.6-2.5,1
		c5,1.7,10.4,2.2,15,5.4c5.1-3.7,11-5.3,17.3-6.9C330,303.9,327.1,303.7,324.2,304.2z"/>
	<path class="st0" d="M306.5,186.9c-115.4,0-209.2,93.9-209.2,209.2c0,115.4,93.9,209.2,209.2,209.2s209.2-93.9,209.2-209.2
		C515.7,280.7,421.8,186.9,306.5,186.9z M306.5,599.3c-108.7,0-197.7-85.8-202.9-193.3h65.4c4.4,67.8,58,122.4,125.5,128.3
		c1.3,0.1,2.6,0.2,3.9,0.3c0.4,0,0.9,0.1,1.3,0.1c1.7,0.1,3.4,0.2,5.1,0.2c0.6,0,1.2,0,1.8,0c2.1,0,4.2-0.1,6.3-0.2
		c0.6,0,1.2-0.1,1.8-0.1c1.2-0.1,2.3-0.2,3.5-0.3C385.7,528.7,439.6,474,444,406h65.4C504.2,513.5,415.2,599.3,306.5,599.3z
		 M271.8,386.7c-5.1-2.3-9.8-2.5-14.2-0.6c-4.8,2.2-8.9,2.2-13.2,0.3c-4.7-2.2-9.9-2.1-15,0.2c-3.8,1.7-7.4,1.8-11,0.1
		c-5.3-2.4-10.5-2.5-15.6-0.2c3.9-7.4,10.4-12.9,20-16.8c3.5-1.4,9.1-3.9,19.3-5.1c9.2-1.1,25.3-1.7,45.9,4.3
		c-0.4-1-1.1-2.6-2.3-4.2c-1.6-2-3.1-3.1-10.1-7.4c-4.4-2.7-6-3.6-7.5-5.8c-0.8-1.2-1.5-2.5-2-4c-1.5-4.2-5-7.7-10.2-9.9
		c-4.8-2-7.6-4.9-9.1-9.3c-1.8-5.3-6.5-8.2-9.8-10c-0.3-0.2-0.7-0.4-1-0.5c2.2-0.8,4.6-1.2,7.3-1.3c10.9-0.4,21.6,3.2,32.7,11.1
		c12.4,8.7,21.5,20,27.8,34.4l2.7,5.9l4-8c10.9-22.1,26.3-35.8,47.3-41.9c7-2,13.4-2.1,19.4-0.1c-5.2,2.2-9,6.2-11.4,11.7
		c-1.7,4-4.1,6.4-7.6,7.6c-5.2,1.8-9,5.6-11.4,11.3c-1,2.4-2.3,4.2-3.9,5.7c-1.2,1.1-2,1.4-4.4,2.7c0,0-2.7,1.6-6.3,4.1
		c-2.2,1.5-5.2,4-8.5,8c10.5-2.5,19.3-3.5,25.7-3.9c6.9-0.5,26.1-2,40.7,4.4c4.2,1.9,8.2,4.2,12,7.1c3.8,2.9,6.6,6.1,8.5,10.1
		c-5.6-2.3-10.8-2.3-16,0.1c-3.6,1.7-7.1,1.7-10.7,0c-5.4-2.5-10.8-2.5-16-0.1c-3.7,1.7-7.3,1.7-11,0c-5.1-2.4-10.3-2.5-15-0.3
		l-5.1,2.4l4.8,3c1.8,1.1,3.6,2.2,5.4,3.2c4,2.3,7.7,4.5,11.2,7.2c14.6,11.2,23.5,24.1,27.2,39.4c1.6,6.6,1.5,12.7-0.3,18.1
		c-2.1-5-5.8-8.7-10.9-10.9c-4.6-2-7.4-4.8-8.9-9.1c-1.6-4.5-5.1-7.9-10.5-10.3c-4.6-2-7.3-4.8-8.8-9.1c-1.5-4.4-5.1-7.9-10.3-10.1
		c-4.5-1.9-7.4-4.8-9.1-9.3c-2-5.3-6.5-8.6-13.2-10.1l-4.1-0.9l5.5,54.6l8.4,83.5c-1.6,0.2-3.3,0.4-4.9,0.5
		c-1.4,0.1-2.8,0.2-4.3,0.3c-0.4,0-0.8,0-1.2,0.1c-1.8,0.1-3.7,0.1-5.5,0.1c-0.3,0-0.5,0-0.8,0c-2.1,0-4.2-0.1-6.2-0.2
		c-0.4,0-0.9-0.1-1.3-0.1c-1.2-0.1-2.5-0.2-3.7-0.3c-2.4-0.2-4.8-0.5-7.2-0.9l9-91.9l4.6-46.3l-4.4,1.4c-4.2,1.4-7.6,4.6-9.8,9.5
		c-2.5,5.5-5.7,8.6-10.5,10.4c-4.1,1.5-7.3,4.9-9.6,10.3c-0.9,2-1.8,3.6-3,4.8c-1.4,1.5-3,2.6-5,3.3c-5,1.7-8.9,5.6-11.3,11
		c-1.9,4.5-4.5,7.1-8.3,8.5c-6,2.1-9.1,7-10.9,10.5c-0.1,0.2-0.2,0.5-0.4,0.7c-0.7-2.1-1.2-4.3-1.3-6.6c-0.4-9.6,2-18.6,7.5-27.9
		c1.5-2.5,3.2-5,5.1-7.5c8.6-11.3,18.6-19.3,30.6-24.5c0.4-0.2,0.7-0.3,1.2-0.6l6-3.2L271.8,386.7z M315.8,397.8
		c2.3,1.1,3.8,2.8,4.7,5c2.4,6.1,6.3,10.1,12.4,12.7c2.5,1.1,5.7,3.1,7,6.5c2.1,5.9,6,10.1,12.2,12.7c3.8,1.6,6.2,3.9,7.2,6.7
		c2,5.9,6,10,12.2,12.7c1.3,0.6,2.5,1.3,3.5,2.1c-17.8,3-37.4-0.7-54.1-10.3l-0.1,0.1L315.8,397.8z M272.9,422.7
		c1.6-3.6,3.5-5.7,5.9-6.6c6.3-2.3,10.8-6.6,13.9-13.5c0.5-1,1-1.9,1.5-2.7l-3,30.4C285,427.1,278.9,424.6,272.9,422.7z M436.3,409
		c-1.1,3.9-5.9,13.5-18.9,24.9c-5.4,4.8-13.8,11.2-25.3,16.9c0.1-3.5-0.4-7.1-1.3-10.8c-4-16.7-13.6-30.7-29.4-42.8
		c-2.4-1.9-5-3.5-7.6-5.1c0,0,0.1,0,0.1,0c5.3,2.5,10.7,2.5,16.1,0c3.7-1.7,7.3-1.7,11,0.1c5.2,2.4,10.5,2.4,15.8,0
		c3.8-1.7,7.5-1.6,11.8,0.3c1.3,0.6,2.6,0.9,4,1.2c0.6,0.1,1.2,0.3,1.8,0.4l5.1,1.3l-1.4-5.1c-2.1-7.7-6.3-13.9-12.7-18.7
		c-15.3-11.5-33.9-15.7-57.1-12.7c-0.8,0.1-1.6,0.2-2.5,0.4c2.6-2.1,4.7-4.9,6.2-8.5c1.8-4.1,4.3-6.7,7.9-7.9
		c5.2-1.8,8.9-5.4,11.2-11c1.8-4.3,4.6-7.1,8.5-8.7c1.4-0.5,2.6-1.3,3.8-2.1c0.6-0.4,1.2-0.7,1.8-1.1l5.1-2.9l-6.9-3.2
		c-0.9-0.4-1.6-0.7-2.3-1c-7.7-3.2-16.2-3.4-25.3-0.8c-21.6,6.3-37.8,20-49.4,41.8c-6.5-12.8-15.5-23-27.1-31.2
		c-12.2-8.6-24.1-12.6-36.4-12.2c-5.9,0.2-10.8,1.7-15.3,4.6l-4.3,2.8l6.6,3.6c1.5,0.8,2.8,1.5,4.1,2.2c3.9,2,6,4.1,6.9,6.5
		c2,6,6.1,10.2,12.4,12.9c2.5,1.1,5.7,3,6.8,6.3c1.4,4.1,3.7,7.4,7.2,10c-16.2-3.2-31.9-1.6-47,4.5c-11.2,4.6-18.9,11.2-23.4,20.2
		c-0.6,1.2-1,2.4-1.5,3.8c-0.2,0.6-0.5,1.3-0.8,2.1l-2.1,5.7l5.9-1.8c0.8-0.3,1.6-0.5,2.3-0.7c1.5-0.4,2.9-0.8,4.2-1.4
		c3.5-1.6,7-1.5,10.8,0.1c5.2,2.4,10.6,2.4,16-0.1c3.5-1.6,6.8-1.7,9.9-0.2c5.3,2.5,10.7,2.6,16.5,0.4c-8.9,5.4-16.8,12.6-23.6,21.6
		c-2,2.6-3.7,5.2-5.2,7.8c-15.2,2.6-31,7.8-48.1,15.9c-4.3-13.1-6.5-26.8-6.5-40.7c0-70.3,55.4-127.9,124.8-131.4
		c2.2-0.1,4.5-0.2,6.8-0.2c72.5,0,131.6,59,131.6,131.6c0,0,0,0.1,0,0.1C438,396.9,438,403,436.3,409z M444.2,400c0-1,0.1-2,0.1-2.9
		c0-76-61.8-137.8-137.8-137.8c0,0,0,0,0,0s0,0,0,0c-2.4,0-4.7,0.1-7.1,0.2c-72.7,3.7-130.8,64-130.8,137.7c0,1,0.1,2,0.1,2.9h-65.4
		c0-1.3,0-2.6,0-3.9c0-112,91.1-203.2,203.2-203.2s203.2,91.1,203.2,203.2c0,1.3,0,2.6,0,3.9H444.2z"/>
</g>
</svg>
