<?xml version="1.0" encoding="utf-8"?>
<!-- Generator: Adobe Illustrator 24.1.2, SVG Export Plug-In . SVG Version: 6.00 Build 0)  -->
<svg version="1.1" id="Layer_1" xmlns="http://www.w3.org/2000/svg" xmlns:xlink="http://www.w3.org/1999/xlink" x="0px" y="0px"
	 viewBox="0 0 612 792" style="enable-background:new 0 0 612 792;" xml:space="preserve">
<style type="text/css">
	.st0{fill:none;}
	.st1{fill:#FBE19B;}
	.st2{font-family:'Optima-Bold';}
	.st3{font-size:7.32px;}
	.st4{letter-spacing:5;}
</style>
<g>
	<rect x="223.7" y="442.2" class="st0" width="152" height="10.8"/>
	<text transform="matrix(1 0 0 1 223.6521 447.7501)"><tspan x="0" y="0" class="st1 st2 st3 st4">BIOSCIENCES</tspan><tspan x="109.2" y="0" class="st1 st2 st3 st4">,</tspan><tspan x="116.6" y="0" class="st1 st2 st3"> </tspan><tspan x="119.6" y="0" class="st1 st2 st3 st4">INC.</tspan></text>
	<path class="st1" d="M224.5,410.6c-0.1-2-0.2-4-0.3-6c0.7,0.1,1.5,0.1,2.3,0.2c0.8,0,1.5,0.1,2.3,0.1c0.4,0,0.8,0,1.3,0
		c0.5,0,1.1-0.1,1.6-0.1c0.5,0,1.1,0,1.6-0.1c0.5,0,0.9,0,1.3,0c0.5,0,1,0,1.7,0c0.7,0,1.4,0.1,2.2,0.3c0.8,0.2,1.5,0.4,2.3,0.7
		c0.7,0.3,1.4,0.8,2,1.3c0.6,0.6,1.1,1.3,1.5,2.2c0.4,0.9,0.6,2,0.6,3.3c0,2-0.4,3.7-1.3,5c-0.9,1.3-2,2.3-3.2,3
		c-1.3,0.7-2.6,1.2-4.1,1.4c-1.4,0.2-2.7,0.4-3.8,0.4c-0.7,0-1.4,0-1.9,0c-0.6,0-1.2-0.1-1.8-0.1v2.6c0,2,0,4.1,0.1,6
		c0.1,2,0.2,3.9,0.3,5.8c-0.7-0.1-1.5-0.1-2.3-0.1c-0.8,0-1.6,0-2.3,0.1c0.1-1.9,0.2-3.9,0.3-5.8c0.1-2,0.1-4,0.1-6v-8
		C224.6,414.6,224.6,412.6,224.5,410.6z M231.7,420.5c1,0,1.9-0.1,3-0.3c1-0.2,2-0.6,2.8-1.2c0.9-0.6,1.5-1.4,2.1-2.4
		c0.5-1,0.8-2.3,0.8-3.9c0-1.3-0.2-2.4-0.6-3.2c-0.4-0.8-0.9-1.5-1.6-1.9c-0.7-0.5-1.5-0.8-2.4-1c-1-0.2-2-0.3-3.2-0.3h-4.2v13.8
		C229.5,420.3,230.6,420.5,231.7,420.5z"/>
	<path class="st1" d="M300.1,435.4c-0.6,0.3-1.3,0.6-2.2,0.8c-0.9,0.2-1.8,0.4-2.9,0.6c-1.1,0.2-2.2,0.3-3.3,0.3
		c-2.4,0-4.7-0.3-6.8-1c-2.1-0.7-3.9-1.8-5.4-3.2c-1.5-1.4-2.7-3.2-3.5-5.2c-0.9-2.1-1.3-4.4-1.3-7c0-2.6,0.4-5,1.3-7
		c0.9-2.1,2-3.8,3.6-5.2c1.5-1.4,3.4-2.5,5.5-3.2c2.1-0.7,4.5-1.1,7.1-1.1c2,0,3.9,0.2,5.6,0.6c1.7,0.4,3.2,0.9,4.5,1.5
		c-0.2,0.4-0.4,1-0.6,1.8c-0.2,0.7-0.3,1.4-0.4,1.9l-0.3,0.1c-0.3-0.4-0.7-0.8-1.3-1.3c-0.6-0.5-1.2-0.9-1.9-1.3
		c-0.7-0.4-1.6-0.8-2.5-1.1c-0.9-0.3-1.9-0.4-3.1-0.4c-1.8,0-3.5,0.3-5.1,0.9c-1.6,0.6-2.9,1.5-4.1,2.7c-1.2,1.2-2.1,2.8-2.7,4.6
		c-0.6,1.9-1,4.1-1,6.7c0,2.6,0.3,4.8,1,6.7c0.6,1.9,1.6,3.4,2.7,4.6c1.2,1.2,2.5,2.1,4.1,2.7c1.6,0.6,3.3,0.9,5.1,0.9
		c1.1,0,2.1-0.1,3.1-0.4c0.9-0.3,1.8-0.6,2.6-1c0.8-0.4,1.5-0.8,2.1-1.3c0.6-0.4,1.2-0.8,1.6-1.2l0.2,0.2l-0.4,2.7
		C301.2,434.8,300.7,435.1,300.1,435.4z"/>
	<path class="st1" d="M308.3,410.6c-0.1-2-0.2-4-0.3-6c0.4,0.1,0.8,0.1,1.2,0.2c0.4,0,0.7,0.1,1.1,0.1c0.4,0,0.7,0,1.1-0.1
		c0.4,0,0.8-0.1,1.2-0.2c-0.1,2-0.2,4-0.3,6c-0.1,2-0.1,4-0.1,6v8c0,2,0,4.1,0.1,6c0.1,2,0.2,3.9,0.3,5.8c-0.7-0.1-1.5-0.1-2.3-0.1
		c-0.8,0-1.6,0-2.3,0.1c0.1-1.9,0.2-3.9,0.3-5.8c0.1-2,0.1-4,0.1-6v-8C308.4,414.6,308.4,412.6,308.3,410.6z"/>
	<path class="st1" d="M320.3,410.6c-0.1-2-0.2-4-0.3-6c0.9,0.1,1.8,0.1,2.6,0.2c0.9,0,1.7,0.1,2.6,0.1c0.9,0,1.8,0,2.6-0.1
		c0.9-0.1,1.7-0.1,2.6-0.1c1.3,0,2.5,0.1,3.7,0.4c1.2,0.2,2.2,0.7,3.1,1.2c0.9,0.6,1.6,1.3,2.1,2.3c0.5,0.9,0.8,2.1,0.8,3.5
		c0,1.5-0.3,2.8-1,3.8c-0.7,1.1-1.5,1.9-2.4,2.6c-1,0.7-2,1.2-3.1,1.6c-1.1,0.4-2.1,0.6-3,0.8c0.4,0.5,0.9,1.1,1.5,1.9
		c0.6,0.8,1.4,1.8,2.2,2.8c0.8,1,1.6,2.1,2.5,3.2c0.9,1.1,1.7,2.2,2.5,3.2c0.8,1,1.6,1.9,2.3,2.8c0.7,0.8,1.3,1.5,1.7,1.9
		c-0.5-0.1-0.9-0.1-1.4-0.1c-0.5,0-0.9,0-1.4,0c-0.4,0-0.9,0-1.3,0c-0.5,0-0.9,0-1.3,0.1c-0.5-0.6-1.2-1.6-2.1-2.9
		c-0.9-1.3-2-2.7-3.1-4.2c-1.1-1.5-2.3-3-3.5-4.4c-1.2-1.5-2.3-2.7-3.3-3.7h-1.8v3.4c0,2,0,4.1,0.1,6c0.1,2,0.2,3.9,0.3,5.8
		c-0.7-0.1-1.5-0.1-2.3-0.1c-0.8,0-1.6,0-2.3,0.1c0.1-1.9,0.2-3.9,0.3-5.8c0.1-2,0.1-4,0.1-6v-8
		C320.4,414.6,320.4,412.6,320.3,410.6z M325.7,419.4c0.5,0,1.1,0,1.7,0c1,0,2-0.1,3-0.3c1-0.2,2-0.6,2.9-1.1
		c0.9-0.5,1.6-1.3,2.2-2.2c0.6-0.9,0.9-2.1,0.9-3.5c0-1.2-0.2-2.2-0.7-3c-0.4-0.8-1-1.4-1.7-1.9c-0.7-0.5-1.5-0.8-2.3-1
		c-0.8-0.2-1.7-0.3-2.5-0.3c-1.1,0-2,0-2.7,0.1c-0.7,0-1.3,0.1-1.8,0.2c-0.1,1.7-0.1,3.4-0.2,5.1c-0.1,1.7-0.1,3.3-0.1,5v2.6
		C324.7,419.3,325.2,419.4,325.7,419.4z"/>
	<path class="st1" d="M375,436.1c-72.8-99.7-130.7,0.4-130.7,0.4S303.1,346.8,375,436.1L375,436.1z"/>
	<path class="st1" d="M272,433.2c-0.6-1.4-1.3-3-2.1-4.9c-0.8-1.8-1.6-3.8-2.5-5.9c-0.9-2.1-1.8-4.2-2.7-6.4
		c-0.9-2.1-1.8-4.2-2.6-6.3c-0.9-2.1-1.7-4-2.4-5.8h-0.9c-2.4,5.5-4.8,11-7.2,16.3c-2.4,5.4-4.8,10.7-7.3,16.2
		c0.5-0.1,1.1-0.1,1.7-0.1c0.6,0,1.2,0,1.7,0.1c0.4-1.4,1-3.2,1.8-5.4c0.8-2.1,1.6-4.3,2.6-6.6l0,0l1.2-2.8l4.9-11.4l5.2,11.8
		l0.9,2.6h0c0.3,0.9,0.7,1.8,1.1,2.7c0.5,1.1,0.9,2.2,1.4,3.3c0.4,1.1,0.9,2.2,1.2,3.2c0.4,1,0.7,1.9,0.9,2.6
		c0.4-0.1,0.8-0.1,1.2-0.1c0.4,0,0.8,0,1.2,0c0.4,0,0.8,0,1.2,0c0.4,0,0.8,0,1.2,0.1C273.1,435.7,272.6,434.6,272,433.2z"/>
	<path class="st1" d="M373.9,433.2c-0.6-1.4-1.3-3-2.1-4.9c-0.8-1.8-1.6-3.8-2.5-5.9c-0.9-2.1-1.8-4.2-2.7-6.4
		c-0.9-2.1-1.8-4.2-2.6-6.3c-0.9-2.1-1.7-4-2.4-5.8h-0.9c-2.4,5.5-4.8,11-7.2,16.3c-2.4,5.4-4.8,10.7-7.3,16.2
		c0.5-0.1,1.1-0.1,1.7-0.1c0.6,0,1.2,0,1.7,0.1c0.4-1.4,1-3.2,1.8-5.4c0.8-2.1,1.6-4.3,2.6-6.6l0,0l1.2-2.8l4.9-11.4l5.2,11.8
		l0.9,2.6h0c0.3,0.9,0.7,1.8,1.1,2.7c0.5,1.1,0.9,2.2,1.4,3.3c0.4,1.1,0.9,2.2,1.2,3.2c0.4,1,0.7,1.9,0.9,2.6
		c0.4-0.1,0.8-0.1,1.2-0.1c0.4,0,0.8,0,1.2,0c0.4,0,0.8,0,1.2,0c0.4,0,0.8,0,1.2,0.1C375,435.7,374.5,434.6,373.9,433.2z"/>
</g>
</svg>
