<?xml version="1.0" encoding="utf-8"?>
<!-- Generator: Adobe Illustrator 24.1.2, SVG Export Plug-In . SVG Version: 6.00 Build 0)  -->
<svg version="1.1" id="Layer_1" xmlns="http://www.w3.org/2000/svg" xmlns:xlink="http://www.w3.org/1999/xlink" x="0px" y="0px"
	 viewBox="0 0 418.4 418.4" style="enable-background:new 0 0 418.4 418.4;" xml:space="preserve">
<style type="text/css">
	.st0{fill:#FBE19B;}
</style>
<g>
	<path class="st0" d="M57.7,140l-1.2-0.6l-2,4.3l1.8,0.8c1.4,0.6,2,1.2,1.5,2.1c-0.4,1-1.3,0.8-2.5,0.2l-11.6-5.4
		c-1.2-0.6-1.7-1.1-1.3-2s1.1-0.9,2.4-0.3l1.9,0.9l2-4.3l-1.4-0.6c-2.9-1.3-6.3-2-8.4,2.7c-1.6,3.5-0.5,6.4,3.3,8.1l10.8,5
		c4,1.9,6.8,1.2,8.5-2.6C63.8,143.4,60.5,141.3,57.7,140z"/>
	
		<rect x="57.3" y="113.3" transform="matrix(0.518 -0.8554 0.8554 0.518 -78.5075 111.4141)" class="st0" width="4.7" height="24.2"/>
	<path class="st0" d="M73.5,105.1c0.2-1.1,0.3-2.8-2.5-5l-0.7-0.5c-3.4-2.6-6-2.1-8.5,1.1l-3.7,4.8l19.2,14.8l2.8-3.7l-8.4-6.4
		l0.3-0.4c1.1-1.4,1.6-1.4,3.8,0.3c2.5,1.9,4.9,3.8,6,4.3l2.8-3.6c-1.1-0.6-3.9-2.8-5.8-4.2C76.3,104.4,75,104.3,73.5,105.1z
		 M69.3,107.5l-0.4,0.5l-5-3.9l0.4-0.6c1-1.4,1.9-1.1,3.2-0.1l0.9,0.7C70.3,105.4,70.3,106.2,69.3,107.5z"/>
	<path class="st0" d="M94.5,88.8l-3.3,3.3l1.4,1.4c1.1,1.1,1.4,1.8,0.7,2.5s-1.5,0.3-2.4-0.6l-9.1-9.1c-1-1-1.2-1.6-0.5-2.3
		c0.7-0.7,1.4-0.4,2.3,0.5l1.5,1.5l3.3-3.3l-1.1-1.1c-2.2-2.2-5.2-4-8.8-0.4c-2.7,2.7-2.7,5.8,0.3,8.8l8.4,8.4
		c3.2,3.2,6,3.4,8.9,0.5c3.9-3.9,1.6-7.1-0.6-9.3L94.5,88.8z"/>
	<polygon class="st0" points="109.1,81.5 96.7,65.6 93,68.5 108,87.6 116,81.4 113.8,77.9 	"/>
	<polygon class="st0" points="126.2,69.7 122.8,64 127.1,61.5 124.9,57.9 120.7,60.5 117.9,56 122.4,53.3 120.3,49.7 111.8,54.9 
		124.4,75.6 132.9,70.5 131.2,66.7 	"/>
	<path class="st0" d="M160.1,39.6c-1.6-4.6-4.6-5.7-8.2-4.4c-3.5,1.2-5.3,4-3.8,8.4l3.7,10.8c1.5,4.5,4.2,5.8,8,4.5
		c4-1.4,5.5-4.1,3.9-8.6L160.1,39.6z M158.7,55c-1,0.3-1.7-0.2-2.2-1.7l-4-11.7c-0.5-1.5-0.2-2.4,0.7-2.7c1.1-0.4,1.8,0.2,2.2,1.6
		l4,11.7C160,53.8,159.7,54.6,158.7,55z"/>
	<polygon class="st0" points="183,37.5 178,38.5 177,33.1 182.3,32 181.5,28 171.6,29.9 176.2,53.7 180.8,52.8 178.8,42.5 
		183.8,41.6 	"/>
	<polygon class="st0" points="219.9,30.3 220.1,26.1 210.1,25.8 209.3,50.1 219.3,50.4 220,46.3 214.1,46.1 214.3,39.5 219.3,39.7 
		219.5,35.6 214.5,35.4 214.7,30.1 	"/>
	<path class="st0" d="M241.4,28.9c-0.1,0.5-2.8,6.6-2.9,7.3h-0.1c0.1-0.6-0.2-7.3-0.1-7.8l-4.9-0.9l1.3,12.6L229,51.4l4.6,0.8
		c0.2-0.7,3.1-7.1,3.2-7.9h0.1c-0.1,1,0.3,7.6,0.2,8.5l4.9,0.9l-1.5-13.3l5.5-10.6L241.4,28.9z"/>
	<path class="st0" d="M264.2,34.4c-3.7-1.2-6.4,0.3-7.7,4.3L252.8,50c-1.4,4.2-0.4,6.9,3.5,8.1c5.3,1.7,7-1.8,8-4.7l0.4-1.2
		l-4.5-1.5l-0.6,1.9c-0.5,1.5-1,2.1-2,1.8s-0.9-1.2-0.5-2.5l4-12.2c0.4-1.3,0.9-1.8,1.8-1.5c0.9,0.3,1,1,0.6,2.3l-0.6,2l4.5,1.5
		l0.5-1.4C268.8,39.5,269,36,264.2,34.4z"/>
	<polygon class="st0" points="289.4,49.8 291.1,46 282.2,41.7 271.7,63.6 280.7,67.9 283,64.5 277.7,61.9 280.5,56 285,58.1 
		286.8,54.4 282.3,52.3 284.6,47.5 	"/>
	<polygon class="st0" points="303,52.7 289.9,73.1 298.4,78.6 300.9,75.4 296,72.2 306.9,55.2 	"/>
	<polygon class="st0" points="325.6,68.9 322,65.9 306.6,84.6 314.4,91.1 317.3,88.2 312.8,84.5 	"/>
	<polygon class="st0" points="336.2,97.6 339.2,94.8 335.7,91.2 339.6,87.5 343.2,91.3 346.2,88.4 339.3,81.3 321.8,98 328.7,105.2 
		332,102.8 328,98.6 332.8,94 	"/>
	<path class="st0" d="M359.9,105.4l-3.2,2.4c-2.7,2-6.2,4.8-8.6,6.9l-0.1-0.1c0.7-0.8,8.1-9.3,10-11.7l-3.1-4.1l-19.5,14.4l2.5,3.4
		l3.3-2.5c3.1-2.3,6.9-5.3,9-7.1l0.1,0.1c-0.5,0.6-9,10.2-10.6,12l3.1,4.2l19.5-14.4L359.9,105.4z"/>
	<path class="st0" d="M361.6,139.1l-2.3-4.1l-1.8,1c-1.3,0.7-2.1,0.8-2.6,0c-0.5-0.9,0.2-1.5,1.3-2.2l11.2-6.2
		c1.2-0.7,1.9-0.7,2.4,0.1c0.5,0.9,0,1.4-1.2,2.1l-1.8,1l2.3,4.1l1.3-0.7c2.8-1.5,5.3-3.9,2.8-8.4c-1.9-3.4-4.8-4.2-8.5-2.1
		l-10.4,5.8c-3.9,2.2-5,4.8-3,8.4c2.7,4.9,6.4,3.5,9.1,2L361.6,139.1z"/>
	<polygon class="st0" points="358.9,152.3 362.6,161.6 366.6,160.6 364.5,155.1 370.6,152.7 372.5,157.3 376.3,155.8 374.4,151.2 
		379.4,149.2 381.3,154.1 385.1,152.6 381.5,143.4 	"/>
	<polygon class="st0" points="53.7,260.8 55.9,260.2 52.7,249.3 50.6,250 51.8,254.2 40.2,257.5 40.9,260 52.5,256.6 	"/>
	<polygon class="st0" points="61.2,274.1 55.9,276.3 53.3,270.1 58.7,267.9 57.7,265.5 44.5,270.9 45.5,273.3 51.3,270.9 
		53.8,277.1 48,279.5 48.9,281.8 62.2,276.4 	"/>
	<polygon class="st0" points="67.8,292.3 69.7,291.2 65.3,282.9 52.7,289.6 57.3,298.3 59.3,297.2 55.8,290.8 59.4,288.9 
		62.5,294.7 64.4,293.6 61.3,287.9 64.5,286.1 	"/>
	<path class="st0" d="M77.4,314.9L77.4,314.9c0.7,0.4,1.3,0.7,2,0.7c0.7,0.1,1.4-0.2,2-0.6c0.5-0.4,0.9-0.8,1.1-1.3
		c0.2-0.5,0.3-1,0.3-1.5s-0.1-1-0.3-1.5s-0.5-1-0.8-1.4l-3.3-4.5l-11.5,8.5l3.1,4.1c0.4,0.5,0.9,1,1.4,1.5c0.5,0.4,1,0.8,1.6,1
		s1.1,0.3,1.8,0.2c0.6-0.1,1.2-0.3,1.9-0.8c0.8-0.6,1.2-1.3,1.4-2.1C78,316.5,77.8,315.7,77.4,314.9z M75.1,317.3
		c-0.4,0.3-0.7,0.4-1.1,0.4s-0.7-0.1-1-0.2c-0.3-0.2-0.6-0.4-0.9-0.7c-0.3-0.3-0.5-0.5-0.7-0.8l-1.4-1.8l3.3-2.5l1.4,1.9
		c0.6,0.8,1,1.5,1,2.1C76,316.3,75.7,316.8,75.1,317.3z M76.6,312.2l-1.3-1.8l3-2.2l1.2,1.6c0.6,0.8,0.9,1.4,0.9,2
		c0.1,0.5-0.2,1-0.7,1.4s-1,0.5-1.5,0.3C77.6,313.3,77.1,312.9,76.6,312.2z"/>
	<path class="st0" d="M91.8,321.8l-14.8,5l1.9,2.1l3.3-1.2l4.2,4.6l-1.5,3.2l1.9,2.2l6.5-14.2L91.8,321.8z M87.4,330.1l-3-3.3
		l5.8-2.2L87.4,330.1z"/>
	<polygon class="st0" points="108.1,337.9 104.3,342.2 99.3,337.7 103.2,333.4 101.3,331.7 91.7,342.4 93.6,344.1 97.8,339.3 
		102.8,343.8 98.6,348.5 100.5,350.2 110,339.6 	"/>
	<path class="st0" d="M105.7,354.6l2.3,1.7l3-1.9l5,3.6l-0.8,3.4l2.4,1.7l3.4-15.2l-1.8-1.3L105.7,354.6z M116.6,355.7l-3.6-2.6
		l5.2-3.4L116.6,355.7z"/>
	<polygon class="st0" points="140.4,360 132.2,367.1 132.2,367.1 133.9,356.4 130.4,354.5 123.5,367 125.6,368.2 131.2,358.1 
		131.2,358.1 129.4,370.3 130.9,371.1 140.3,363.2 140.3,363.2 134.7,373.3 136.9,374.5 143.9,362 	"/>
	<path class="st0" d="M154.4,366.5l-11.1,11l2.6,1.1l2.4-2.6l5.8,2.3v3.5l2.7,1.1l-0.4-15.6L154.4,366.5z M154.1,375.9l-4.1-1.6
		l4.2-4.6L154.1,375.9z"/>
	<path class="st0" d="M174,373c-0.7-0.4-1.3-0.8-2-1c-0.6-0.2-1.3-0.3-1.9-0.3s-1.3,0.1-1.8,0.3c-0.6,0.2-1.1,0.5-1.5,0.9
		s-0.7,1-0.9,1.7c-0.2,0.6-0.2,1.2-0.1,1.7s0.3,0.9,0.5,1.3c0.2,0.4,0.6,0.7,0.9,1c0.4,0.3,0.7,0.6,1.1,0.8c0.4,0.3,0.8,0.5,1.1,0.7
		c0.4,0.2,0.7,0.5,0.9,0.7c0.2,0.3,0.4,0.5,0.5,0.8s0.1,0.6,0,1s-0.3,0.7-0.5,0.9s-0.5,0.4-0.8,0.5s-0.6,0.2-0.9,0.1
		c-0.3,0-0.6-0.1-0.9-0.1c-0.5-0.1-1.1-0.4-1.6-0.9c-0.5-0.4-0.8-0.9-1.1-1.5l-2.2,1.2c0.4,0.8,0.9,1.5,1.7,2c0.8,0.6,1.6,1,2.5,1.2
		c0.7,0.2,1.3,0.3,2,0.3s1.3-0.1,1.8-0.4c0.6-0.2,1-0.6,1.5-1.1c0.4-0.5,0.7-1.1,0.9-1.8c0.2-0.7,0.2-1.3,0.1-1.8s-0.4-1-0.7-1.4
		c-0.3-0.4-0.7-0.8-1.1-1.1s-0.8-0.6-1.2-0.9c-0.4-0.2-0.7-0.4-1-0.6c-0.3-0.2-0.5-0.4-0.7-0.6c-0.2-0.2-0.3-0.5-0.4-0.7
		c-0.1-0.3-0.1-0.5,0-0.9c0.1-0.3,0.2-0.6,0.5-0.8c0.2-0.2,0.5-0.3,0.7-0.4c0.3-0.1,0.6-0.1,0.9-0.1s0.6,0,0.9,0.1
		c0.5,0.1,0.9,0.4,1.3,0.7c0.4,0.4,0.7,0.7,0.9,1.1l2.1-1.3C175.2,374,174.7,373.5,174,373z"/>
	
		<rect x="181.6" y="380.4" transform="matrix(0.1108 -0.9938 0.9938 0.1108 -208.6755 529.6966)" class="st0" width="20.2" height="2.1"/>
	<path class="st0" d="M217.8,377.7c-0.5-0.3-1.1-0.5-1.7-0.6c-0.7-0.1-1.4-0.2-2.2-0.1l-4.7,0.2l0.7,14.3l2.5-0.1l-0.3-5.9l2-0.1
		c0.8,0,1.5-0.1,2.1-0.3c0.7-0.2,1.2-0.4,1.7-0.8s0.9-0.8,1.1-1.4s0.4-1.2,0.4-2c0-0.7-0.2-1.4-0.5-1.9
		C218.7,378.4,218.3,378,217.8,377.7z M216.7,382c-0.2,0.3-0.4,0.5-0.7,0.7c-0.3,0.2-0.6,0.3-1,0.4c-0.4,0.1-0.8,0.1-1.2,0.1
		l-1.8,0.1l-0.2-4.1l1.9-0.1c0.4,0,0.8,0,1.1,0c0.4,0,0.7,0.1,1,0.2c0.3,0.1,0.5,0.3,0.7,0.6s0.3,0.6,0.3,1
		C216.9,381.4,216.8,381.7,216.7,382z"/>
	<path class="st0" d="M228.7,375.5l-4.1,15l2.8-0.4l0.8-3.4l6.1-0.9l1.8,3l2.9-0.4l-8.2-13.3L228.7,375.5z M228.8,384.5l1.4-6.1
		l3,5.4L228.8,384.5z"/>
	<path class="st0" d="M253,377.2c0.4-0.8,0.5-1.7,0.2-2.7c-0.2-0.7-0.5-1.3-0.9-1.7s-0.9-0.7-1.5-0.9s-1.2-0.3-1.8-0.3
		c-0.6,0-1.3,0.1-1.9,0.3l-4.8,1.2l3.6,13.8l2.5-0.6l-1.5-5.9l1.8-0.5l4.7,5l3-0.8l-5.3-5.2C251.9,378.6,252.6,378,253,377.2z
		 M250.7,376.3c-0.1,0.3-0.3,0.6-0.5,0.8s-0.5,0.4-0.9,0.5c-0.3,0.1-0.7,0.3-1,0.4l-2,0.5l-1-3.9l2.2-0.6c0.3-0.1,0.6-0.1,1-0.2
		c0.3,0,0.7,0,1,0.1s0.6,0.2,0.8,0.4c0.2,0.2,0.4,0.5,0.5,0.9C250.8,375.6,250.8,375.9,250.7,376.3z"/>
	<path class="st0" d="M262.5,367.1l-0.8,15.6l2.7-1l0.1-3.5l5.8-2.2l2.4,2.6l2.7-1l-10.8-11.2L262.5,367.1z M264.5,375.8l0.1-6.2
		l4.1,4.7L264.5,375.8z"/>
	<path class="st0" d="M287.9,359.7c-0.8-0.6-1.7-1-2.6-1.1c-0.9-0.2-1.9-0.1-2.8,0.1c-1,0.2-1.8,0.5-2.7,0.9l-4.5,2.3l6.5,12.8
		l4.5-2.3c0.8-0.4,1.6-1,2.3-1.6c0.7-0.7,1.3-1.4,1.7-2.3c0.4-0.9,0.6-1.8,0.6-2.8s-0.3-2.1-0.8-3.2
		C289.4,361.2,288.7,360.3,287.9,359.7z M287.8,368c-0.3,0.6-0.7,1.1-1.2,1.5s-1.1,0.8-1.7,1.1l-1.9,1l-4.5-8.8l1.9-1
		c0.6-0.3,1.2-0.5,1.9-0.7c0.6-0.2,1.3-0.2,1.9-0.1c0.6,0.1,1.3,0.3,1.8,0.8c0.6,0.4,1.1,1.1,1.6,2c0.4,0.9,0.7,1.7,0.6,2.4
		C288.2,366.8,288.1,367.4,287.8,368z"/>
	
		<rect x="295.9" y="350.9" transform="matrix(0.8501 -0.5266 0.5266 0.8501 -144.0135 210.1478)" class="st0" width="2.5" height="14.3"/>
	<path class="st0" d="M313.9,350.2c-0.4-0.6-0.9-1-1.4-1.2s-1-0.3-1.5-0.4c-0.5,0-1,0.1-1.5,0.2c-0.5,0.1-1,0.3-1.4,0.4
		c-0.4,0.1-0.8,0.3-1.1,0.4c-0.3,0.1-0.7,0.2-0.9,0.2c-0.3,0-0.6,0-0.8-0.1c-0.2-0.1-0.5-0.3-0.6-0.6c-0.2-0.3-0.3-0.6-0.3-0.9
		c0-0.3,0-0.6,0.1-0.8c0.1-0.3,0.3-0.5,0.5-0.8c0.2-0.2,0.4-0.4,0.7-0.6c0.4-0.3,0.9-0.5,1.4-0.6s1-0.1,1.4,0l0.3-2.4
		c-0.7-0.1-1.5,0-2.3,0.2s-1.4,0.6-2,1c-0.5,0.4-1,0.8-1.4,1.3c-0.4,0.5-0.7,1-0.9,1.6c-0.2,0.6-0.3,1.2-0.2,1.8s0.3,1.2,0.7,1.8
		c0.4,0.5,0.8,0.9,1.3,1.2c0.4,0.2,0.9,0.4,1.3,0.4c0.5,0,0.9,0,1.4-0.1s0.9-0.2,1.3-0.4c0.4-0.1,0.9-0.3,1.3-0.4
		c0.4-0.1,0.8-0.2,1.1-0.2c0.3,0,0.7,0,1,0.1s0.5,0.3,0.8,0.6c0.2,0.3,0.4,0.6,0.4,0.9c0,0.3,0,0.6-0.1,0.9
		c-0.1,0.3-0.3,0.6-0.5,0.8s-0.4,0.5-0.7,0.6c-0.5,0.3-1,0.6-1.6,0.7c-0.6,0.1-1.2,0.1-1.8-0.1l-0.5,2.4c0.9,0.2,1.7,0.2,2.7-0.1
		c0.9-0.2,1.8-0.6,2.5-1.2c0.6-0.4,1-0.9,1.4-1.4c0.4-0.5,0.7-1.1,0.8-1.7c0.2-0.6,0.2-1.2,0.1-1.8
		C314.6,351.5,314.3,350.8,313.9,350.2z"/>
	<polygon class="st0" points="323,345.2 320.3,342.2 325.2,337.9 323.8,336.3 318.9,340.6 316.5,337.9 321.6,333.3 320.2,331.6 
		313.1,337.9 322.5,348.6 329.9,342.1 328.4,340.4 	"/>
	
		<rect x="336.4" y="316.5" transform="matrix(0.6534 -0.757 0.757 0.6534 -127.9875 367.7889)" class="st0" width="2.5" height="14.3"/>
	<path class="st0" d="M351.2,311.1c-0.6-0.4-1.1-0.7-1.7-0.7c-0.5-0.1-1,0-1.5,0.1s-1,0.4-1.4,0.6c-0.4,0.3-0.9,0.6-1.2,0.8
		c-0.3,0.3-0.7,0.5-0.9,0.7c-0.3,0.2-0.6,0.3-0.8,0.4c-0.3,0.1-0.5,0.1-0.8,0.1s-0.5-0.1-0.8-0.3c-0.3-0.2-0.5-0.4-0.6-0.7
		c-0.1-0.3-0.2-0.6-0.1-0.8c0-0.3,0.1-0.6,0.2-0.9c0.1-0.3,0.3-0.5,0.4-0.8c0.3-0.4,0.7-0.7,1.2-1s0.9-0.4,1.4-0.4l-0.5-2.4
		c-0.7,0.1-1.4,0.4-2.1,0.9c-0.6,0.5-1.2,1-1.6,1.6c-0.4,0.5-0.7,1.1-0.9,1.7s-0.4,1.2-0.4,1.8c0,0.6,0.1,1.2,0.3,1.7
		c0.2,0.6,0.7,1,1.2,1.5c0.5,0.4,1.1,0.6,1.6,0.7s1,0.1,1.4,0c0.5-0.1,0.9-0.3,1.3-0.5c0.4-0.2,0.8-0.5,1.2-0.8
		c0.4-0.3,0.7-0.5,1.1-0.8c0.3-0.2,0.7-0.4,1-0.6c0.3-0.1,0.6-0.2,0.9-0.2s0.6,0.1,0.9,0.3c0.3,0.2,0.5,0.5,0.7,0.8
		c0.1,0.3,0.2,0.6,0.2,0.9s-0.1,0.6-0.2,0.9c-0.1,0.3-0.3,0.6-0.4,0.8c-0.3,0.5-0.8,0.8-1.4,1.1c-0.6,0.3-1.2,0.5-1.8,0.5l0.3,2.5
		c0.9-0.1,1.7-0.3,2.5-0.9c0.8-0.5,1.5-1.1,2-1.9c0.4-0.6,0.7-1.2,1-1.8c0.2-0.6,0.3-1.2,0.3-1.8c0-0.6-0.2-1.2-0.5-1.8
		C352.3,312,351.8,311.5,351.2,311.1z"/>
	<polygon class="st0" points="358.9,306.9 363.3,299.5 361.4,298.3 358.3,303.6 347.9,297.4 346.6,299.6 	"/>
	<path class="st0" d="M367.1,292.1l-2.4-2.5l2.6-5.6l3.5,0.1l1.2-2.6l-15.6-0.3l-0.9,2l10.5,11.6L367.1,292.1z M358.7,283.4l6.2,0.4
		l-1.8,4L358.7,283.4z"/>
	<polygon class="st0" points="375.1,272.2 364.5,269.1 364.6,269 377.1,265.7 378,262.6 364.3,258.5 363.6,260.9 373.8,264 
		373.8,264 361.7,267.3 360.7,270.6 374.4,274.6 	"/>
	<path class="st0" d="M380.6,248.8c0.1-0.9,0.1-1.9,0-2.8c-0.1-1-0.4-1.9-0.9-2.7c-0.5-0.8-1.1-1.5-1.9-2.1s-1.9-1-3.1-1.1
		c-1.3-0.2-2.5-0.1-3.4,0.2c-1,0.3-1.8,0.8-2.4,1.5c-0.7,0.7-1.2,1.5-1.5,2.4c-0.4,0.9-0.6,1.8-0.8,2.7l-0.7,5l14.2,2L380.6,248.8z
		 M378.4,248.8l-0.3,2.1l-9.8-1.4l0.3-2.1c0.1-0.7,0.3-1.3,0.5-1.9s0.6-1.2,1-1.7c0.4-0.5,1-0.8,1.7-1.1c0.7-0.2,1.5-0.3,2.5-0.2
		c1,0.1,1.7,0.4,2.3,0.8s1,0.9,1.3,1.5s0.5,1.2,0.5,1.9C378.5,247.5,378.4,248.2,378.4,248.8z"/>
	<path class="st0" d="M43,180.4c-3.3,0-5.9,2.7-5.9,5.9c0,3.3,2.7,5.9,5.9,5.9s5.9-2.7,5.9-5.9S46.2,180.4,43,180.4z"/>
	<path class="st0" d="M375.2,180.4c-3.3,0-5.9,2.7-5.9,5.9c0,3.3,2.7,5.9,5.9,5.9c3.3,0,5.9-2.7,5.9-5.9S378.5,180.4,375.2,180.4z"
		/>
	<path class="st0" d="M206.3,103.7c-5.6,0.2-10.6,2.5-15.2,5.4c-1.3,0.8-2.2,1-3.7,0.2c-4.2-2.4-8.7-3.7-13.6-2.5
		c-1,0.2-2,0.8-3,1.2c7.2,2.4,14.5,3.3,20.8,7.6c6.8-5.2,15.1-7.4,23.7-9.3C212.5,104.1,209.4,103.6,206.3,103.7z"/>
	<path class="st0" d="M226.9,117.3c-3.4,0.6-6.4,2-9.3,3.9c-1,0.7-1.7,0.6-2.6,0.1c-2.9-1.6-6-2.5-9.4-1.9c-0.9,0.2-1.7,0.6-2.5,1
		c5,1.7,10.4,2.2,15,5.4c5.1-3.7,11-5.3,17.3-6.9C232.7,117,229.8,116.8,226.9,117.3z"/>
	<path class="st0" d="M209.2,0C93.8,0,0,93.9,0,209.2c0,115.4,93.9,209.2,209.2,209.2s209.2-93.9,209.2-209.2
		C418.4,93.8,324.5,0,209.2,0z M209.2,412.4c-108.7,0-197.7-85.8-202.9-193.3h65.4c4.4,67.8,58,122.4,125.5,128.3
		c1.3,0.1,2.6,0.2,3.9,0.3c0.4,0,0.9,0.1,1.3,0.1c1.7,0.1,3.4,0.2,5.1,0.2c0.6,0,1.2,0,1.8,0c2.1,0,4.2-0.1,6.3-0.2
		c0.6,0,1.2-0.1,1.8-0.1c1.2-0.1,2.3-0.2,3.5-0.3c67.5-5.6,121.4-60.3,125.8-128.3h65.4C406.9,326.6,317.9,412.4,209.2,412.4z
		 M174.5,199.8c-5.1-2.3-9.8-2.5-14.2-0.6c-4.8,2.2-8.9,2.2-13.2,0.3c-4.7-2.2-9.9-2.1-15,0.2c-3.8,1.7-7.4,1.8-11,0.1
		c-5.3-2.4-10.5-2.5-15.6-0.2c3.9-7.4,10.4-12.9,20-16.8c3.5-1.4,9.1-3.9,19.3-5.1c9.2-1.1,25.3-1.7,45.9,4.3
		c-0.4-1-1.1-2.6-2.3-4.2c-1.6-2-3.1-3.1-10.1-7.4c-4.4-2.7-6-3.6-7.5-5.8c-0.8-1.2-1.5-2.5-2-4c-1.5-4.2-5-7.7-10.2-9.9
		c-4.8-2-7.6-4.9-9.1-9.3c-1.8-5.3-6.5-8.2-9.8-10c-0.3-0.2-0.7-0.4-1-0.5c2.2-0.8,4.6-1.2,7.3-1.3c10.9-0.4,21.6,3.2,32.7,11.1
		c12.4,8.7,21.5,20,27.8,34.4l2.7,5.9l4-8c10.9-22.1,26.3-35.8,47.3-41.9c7-2,13.4-2.1,19.4-0.1c-5.2,2.2-9,6.2-11.4,11.7
		c-1.7,4-4.1,6.4-7.6,7.6c-5.2,1.8-9,5.6-11.4,11.3c-1,2.4-2.3,4.2-3.9,5.7c-1.2,1.1-2,1.4-4.4,2.7c0,0-2.7,1.6-6.3,4.1
		c-2.2,1.5-5.2,4-8.5,8c10.5-2.5,19.3-3.5,25.7-3.9c6.9-0.5,26.1-2,40.7,4.4c4.2,1.9,8.2,4.2,12,7.1s6.6,6.1,8.5,10.1
		c-5.6-2.3-10.8-2.3-16,0.1c-3.6,1.7-7.1,1.7-10.7,0c-5.4-2.5-10.8-2.5-16-0.1c-3.7,1.7-7.3,1.7-11,0c-5.1-2.4-10.3-2.5-15-0.3
		l-5.1,2.4l4.8,3c1.8,1.1,3.6,2.2,5.4,3.2c4,2.3,7.7,4.5,11.2,7.2c14.6,11.2,23.5,24.1,27.2,39.4c1.6,6.6,1.5,12.7-0.3,18.1
		c-2.1-5-5.8-8.7-10.9-10.9c-4.6-2-7.4-4.8-8.9-9.1c-1.6-4.5-5.1-7.9-10.5-10.3c-4.6-2-7.3-4.8-8.8-9.1c-1.5-4.4-5.1-7.9-10.3-10.1
		c-4.5-1.9-7.4-4.8-9.1-9.3c-2-5.3-6.5-8.6-13.2-10.1L212,203l5.5,54.6l8.4,83.5c-1.6,0.2-3.3,0.4-4.9,0.5c-1.4,0.1-2.8,0.2-4.3,0.3
		c-0.4,0-0.8,0-1.2,0.1c-1.8,0.1-3.7,0.1-5.5,0.1c-0.3,0-0.5,0-0.8,0c-2.1,0-4.2-0.1-6.2-0.2c-0.4,0-0.9-0.1-1.3-0.1
		c-1.2-0.1-2.5-0.2-3.7-0.3c-2.4-0.2-4.8-0.5-7.2-0.9l9-91.9l4.6-46.3l-4.4,1.4c-4.2,1.4-7.6,4.6-9.8,9.5
		c-2.5,5.5-5.7,8.6-10.5,10.4c-4.1,1.5-7.3,4.9-9.6,10.3c-0.9,2-1.8,3.6-3,4.8c-1.4,1.5-3,2.6-5,3.3c-5,1.7-8.9,5.6-11.3,11
		c-1.9,4.5-4.5,7.1-8.3,8.5c-6,2.1-9.1,7-10.9,10.5c-0.1,0.2-0.2,0.5-0.4,0.7c-0.7-2.1-1.2-4.3-1.3-6.6c-0.4-9.6,2-18.6,7.5-27.9
		c1.5-2.5,3.2-5,5.1-7.5c8.6-11.3,18.6-19.3,30.6-24.5c0.4-0.2,0.7-0.3,1.2-0.6l6-3.2L174.5,199.8z M218.5,210.9
		c2.3,1.1,3.8,2.8,4.7,5c2.4,6.1,6.3,10.1,12.4,12.7c2.5,1.1,5.7,3.1,7,6.5c2.1,5.9,6,10.1,12.2,12.7c3.8,1.6,6.2,3.9,7.2,6.7
		c2,5.9,6,10,12.2,12.7c1.3,0.6,2.5,1.3,3.5,2.1c-17.8,3-37.4-0.7-54.1-10.3l-0.1,0.1L218.5,210.9z M175.6,235.8
		c1.6-3.6,3.5-5.7,5.9-6.6c6.3-2.3,10.8-6.6,13.9-13.5c0.5-1,1-1.9,1.5-2.7l-3,30.4C187.7,240.2,181.6,237.7,175.6,235.8z
		 M339,222.1c-1.1,3.9-5.9,13.5-18.9,24.9c-5.4,4.8-13.8,11.2-25.3,16.9c0.1-3.5-0.4-7.1-1.3-10.8c-4-16.7-13.6-30.7-29.4-42.8
		c-2.4-1.9-5-3.5-7.6-5.1h0.1c5.3,2.5,10.7,2.5,16.1,0c3.7-1.7,7.3-1.7,11,0.1c5.2,2.4,10.5,2.4,15.8,0c3.8-1.7,7.5-1.6,11.8,0.3
		c1.3,0.6,2.6,0.9,4,1.2c0.6,0.1,1.2,0.3,1.8,0.4l5.1,1.3l-1.4-5.1c-2.1-7.7-6.3-13.9-12.7-18.7C292.8,173.2,274.2,169,251,172
		c-0.8,0.1-1.6,0.2-2.5,0.4c2.6-2.1,4.7-4.9,6.2-8.5c1.8-4.1,4.3-6.7,7.9-7.9c5.2-1.8,8.9-5.4,11.2-11c1.8-4.3,4.6-7.1,8.5-8.7
		c1.4-0.5,2.6-1.3,3.8-2.1c0.6-0.4,1.2-0.7,1.8-1.1l5.1-2.9l-6.9-3.2c-0.9-0.4-1.6-0.7-2.3-1c-7.7-3.2-16.2-3.4-25.3-0.8
		c-21.6,6.3-37.8,20-49.4,41.8c-6.5-12.8-15.5-23-27.1-31.2c-12.2-8.6-24.1-12.6-36.4-12.2c-5.9,0.2-10.8,1.7-15.3,4.6L126,131
		l6.6,3.6c1.5,0.8,2.8,1.5,4.1,2.2c3.9,2,6,4.1,6.9,6.5c2,6,6.1,10.2,12.4,12.9c2.5,1.1,5.7,3,6.8,6.3c1.4,4.1,3.7,7.4,7.2,10
		c-16.2-3.2-31.9-1.6-47,4.5c-11.2,4.6-18.9,11.2-23.4,20.2c-0.6,1.2-1,2.4-1.5,3.8c-0.2,0.6-0.5,1.3-0.8,2.1l-2.1,5.7l5.9-1.8
		c0.8-0.3,1.6-0.5,2.3-0.7c1.5-0.4,2.9-0.8,4.2-1.4c3.5-1.6,7-1.5,10.8,0.1c5.2,2.4,10.6,2.4,16-0.1c3.5-1.6,6.8-1.7,9.9-0.2
		c5.3,2.5,10.7,2.6,16.5,0.4c-8.9,5.4-16.8,12.6-23.6,21.6c-2,2.6-3.7,5.2-5.2,7.8c-15.2,2.6-31,7.8-48.1,15.9
		c-4.3-13.1-6.5-26.8-6.5-40.7c0-70.3,55.4-127.9,124.8-131.4c2.2-0.1,4.5-0.2,6.8-0.2c72.5,0,131.6,59,131.6,131.6v0.1
		C340.7,210,340.7,216.1,339,222.1z M346.9,213.1c0-1,0.1-2,0.1-2.9c0-76-61.8-137.8-137.8-137.8l0,0l0,0c-2.4,0-4.7,0.1-7.1,0.2
		c-72.7,3.7-130.8,64-130.8,137.7c0,1,0.1,2,0.1,2.9H6c0-1.3,0-2.6,0-3.9C6,97.3,97.1,6.1,209.2,6.1s203.2,91.1,203.2,203.2
		c0,1.3,0,2.6,0,3.9h-65.5V213.1z"/>
</g>
</svg>
